<svg xmlns="http://www.w3.org/2000/svg" width="1600" height="500">
    <!-- Background Border -->
    <rect x=" 0" y="10" width="1580" height="380" fill="none" stroke="white" stroke-width="2" />

    <!-- Sun -->
    <circle cx="200" cy="200" r="90" fill="gold" />
    <circle cx="180" cy="200" r="60" fill="#4d4d4d" />

    <!-- Sun Rays -->
    <path d="M200 70 L200 20" stroke="gold" stroke-width="18" stroke-linecap="round" />
    <path d="M270 100 L320 60" stroke="gold" stroke-width="18" stroke-linecap="round" />
    <path d="M310 160 L370 150" stroke="gold" stroke-width="18" stroke-linecap="round" />
    <path d="M310 240 L370 250" stroke="gold" stroke-width="18" stroke-linecap="round" />
    <path d="M270 300 L320 350" stroke="gold" stroke-width="18" stroke-linecap="round" />
    <path d="M200 330 L200 380" stroke="gold" stroke-width="18" stroke-linecap="round" />
    <path d="M130 300 L80 350" stroke="gold" stroke-width="18" stroke-linecap="round" />
    <path d="M90 240 L30 250" stroke="gold" stroke-width="18" stroke-linecap="round" />
    <path d="M90 160 L30 150" stroke="gold" stroke-width="18" stroke-linecap="round" />
    <path d="M130 100 L80 60" stroke="gold" stroke-width="18" stroke-linecap="round" />

    <!-- Hill -->
    <ellipse cx="200" cy="280" rx="200" ry="120" fill="green" />
    <ellipse cx="200" cy="300" rx="160" ry="80" fill="#2ca02c" />

    <!-- Text -->
    <text x="450" y="200" font-family="Arial Black, sans-serif" font-size="72" font-weight="bold" fill="gold">
        Software Freedom Day
    </text>
    <text x="450" y="280" font-family="Arial Black, sans-serif" font-size="64" font-weight="bold" fill="green">
        NEPAL OPEN SOURCE KLUB
    </text>
    <text x="450" y="340" font-family="Arial Black, sans-serif" font-size="32" font-weight="bold" fill="#e74c3c">
        BALKUMARI, LALITPUR | SEPTEMBER 20ᵗʰ, 2025
    </text>
</svg>