<?xml version="1.0" encoding="UTF-8"?>
<svg version="1.1" xmlns="http://www.w3.org/2000/svg" width="1378" height="775">
<path d="M0 0 C2.14380001 -0.00961992 4.28660316 -0.04067717 6.43017578 -0.07226562 C37.28904084 -0.30884671 65.04632762 12.32371421 88.17626953 32.24023438 C89.05669922 32.99691406 89.93712891 33.75359375 90.84423828 34.53320312 C96.06828016 39.12498577 100.77280803 43.86309911 105.17626953 49.24023438 C105.60133789 49.7476416 106.02640625 50.25504883 106.46435547 50.77783203 C120.66257103 67.74845138 136.58296493 88.95643805 143.17626953 110.24023438 C142.84626953 111.89023437 142.51626953 113.54023437 142.17626953 115.24023438 C22.38626953 115.24023438 -97.40373047 115.24023438 -220.82373047 115.24023438 C-219.82063536 111.22785392 -219.3756438 110.41502601 -216.61279297 107.66601562 C-215.61977173 106.67166504 -215.61977173 106.67166504 -214.60668945 105.65722656 C-213.89456299 104.96274414 -213.18243652 104.26826172 -212.44873047 103.55273438 C-211.71920166 102.83375977 -210.98967285 102.11478516 -210.23803711 101.37402344 C-204.69458886 95.96560242 -198.93715207 90.99511784 -192.82373047 86.24023438 C-191.69663054 85.32615094 -190.57176413 84.40930901 -189.44873047 83.49023438 C-168.8852547 66.7133833 -146.97691991 52.18004535 -123.82373047 39.24023438 C-123.08493652 38.82418945 -122.34614258 38.40814453 -121.58496094 37.97949219 C-85.52190639 17.81743864 -41.78269915 0.11274846 0 0 Z " fill="#016B01" transform="translate(329.82373046875,435.759765625)"/>
<path d="M0 0 C14.53020237 12.68256282 24.70157189 28.87723539 32.92578125 46.171875 C33.25594238 46.86571289 33.58610352 47.55955078 33.92626953 48.27441406 C35.87899208 52.50684567 37.31894585 56.65906299 38.48828125 61.171875 C36.66876953 60.93404297 36.66876953 60.93404297 34.8125 60.69140625 C17.81574309 58.82425032 0.78445791 59.59933638 -15.90234375 63.19921875 C-27.32361179 65.63818465 -27.32361179 65.63818465 -31.109375 64.15234375 C-33.68286845 62.03078086 -35.94209915 59.7699237 -38.21704102 57.33544922 C-50.71235025 43.98246336 -65.6585968 36.03500586 -84.26171875 35.140625 C-101.35386776 35.30497259 -117.75613055 42.10386058 -130.27734375 53.71484375 C-137.42581118 61.57565846 -142.68262583 70.9339973 -145.51171875 81.171875 C-145.73472656 81.94402344 -145.95773438 82.71617187 -146.1875 83.51171875 C-148.54552258 93.15234168 -148.05769959 103.66432512 -146.69921875 113.421875 C-146.2369116 117.81379295 -146.2369116 117.81379295 -148.57421875 120.859375 C-151.8224228 122.31070021 -153.99316229 122.49918258 -157.51171875 122.171875 C-164.31678074 104.84989902 -165.57339294 84.70704349 -158.51171875 67.171875 C-154.42205578 57.90637992 -149.29167311 49.72826585 -142.51171875 42.171875 C-141.99480469 41.56214844 -141.47789062 40.95242188 -140.9453125 40.32421875 C-127.63459002 25.679088 -107.63138397 19.235809 -88.4375 18.04296875 C-80.7505022 17.82334024 -73.10768957 19.12801153 -65.51171875 20.171875 C-86.01150149 12.03515969 -107.23653311 12.7452192 -127.51171875 21.171875 C-147.33571421 30.33699168 -162.80549431 46.79071437 -170.515625 67.2265625 C-170.84433594 68.19851563 -171.17304688 69.17046875 -171.51171875 70.171875 C-171.98931641 71.53699219 -171.98931641 71.53699219 -172.4765625 72.9296875 C-176.28569589 86.09489507 -175.69692915 101.75331737 -173.51171875 115.171875 C-172.75913399 125.18704136 -173.9761259 135.18392818 -180.51171875 143.171875 C-185.88241998 149.3036649 -192.68417367 155.56269331 -200.51171875 158.171875 C-215.40131364 123.7990868 -220.24685416 87.05028661 -206.48193359 51.50292969 C-198.95366902 33.41539317 -188.02034052 18.19296346 -174.51171875 4.171875 C-173.85816406 3.45515625 -173.20460937 2.7384375 -172.53125 2 C-157.88202019 -13.61751579 -137.41098852 -23.06249108 -116.88671875 -28.015625 C-116.19392822 -28.18288086 -115.5011377 -28.35013672 -114.78735352 -28.52246094 C-74.86476023 -37.68053484 -31.03458132 -26.16210815 0 0 Z " fill="#F6CF29" transform="translate(319.51171875,361.828125)"/>
<path d="M0 0 C1.06289246 -0.00635468 2.12578491 -0.01270935 3.22088623 -0.01925659 C24.69950254 -0.09912974 46.49130748 1.31394315 67.1875 7.4375 C67.95304199 7.6638916 68.71858398 7.8902832 69.50732422 8.12353516 C94.69289114 15.80237071 117.99929174 29.21587081 136.1875 48.4375 C136.1875 49.0975 136.1875 49.7575 136.1875 50.4375 C25.3075 50.4375 -85.5725 50.4375 -199.8125 50.4375 C-176.77731109 33.16110832 -145.13650215 26.29692381 -117.71612549 18.94921875 C-115.90579512 18.46257892 -114.09713505 17.96973802 -112.28857422 17.4765625 C-93.62038594 12.39042534 -74.81458196 8.06370255 -55.8125 4.4375 C-54.6354248 4.20869141 -53.45834961 3.97988281 -52.24560547 3.74414062 C-34.85414882 0.50272218 -17.64554292 0.05374358 0 0 Z " fill="#1F871F" transform="translate(327.8125,499.5625)"/>
<path d="M0 0 C0.66 0.33 1.32 0.66 2 1 C1.54625 2.010625 1.0925 3.02125 0.625 4.0625 C-6.53783943 20.97756213 -6.81973993 41.17454698 -3 59 C-2.60039062 59.8146875 -2.20078125 60.629375 -1.7890625 61.46875 C-0.63997038 65.15494651 -1.82245625 67.22035886 -3.25 70.75 C-7.15059904 80.52341109 -8.30650996 89.07695905 -8.1875 99.625 C-8.18685547 100.718125 -8.18621094 101.81125 -8.18554688 102.9375 C-8.1558088 108.39608813 -7.89034529 113.60271307 -7 119 C-6.24741524 129.01516636 -7.46440715 139.01205318 -14 147 C-19.37070123 153.1317899 -26.17245492 159.39081831 -34 162 C-48.88959489 127.6272118 -53.73513541 90.87841161 -39.97021484 55.33105469 C-30.87906071 33.48849311 -16.78274657 16.34995367 0 0 Z " fill="#F5C600" transform="translate(153,358)"/>
<path d="M0 0 C-0.33 3.96 -0.66 7.92 -1 12 C0.48113281 11.95359375 1.96226562 11.9071875 3.48828125 11.859375 C5.42966737 11.82186029 7.37107526 11.78545981 9.3125 11.75 C10.28896484 11.71648437 11.26542969 11.68296875 12.27148438 11.6484375 C13.20927734 11.63554687 14.14707031 11.62265625 15.11328125 11.609375 C15.97735596 11.58842773 16.84143066 11.56748047 17.73168945 11.54589844 C20 12 20 12 21.7734375 13.671875 C23.25726364 16.48830932 23.42724426 18.46438411 23.51171875 21.640625 C23.54716797 22.71054687 23.58261719 23.78046875 23.61914062 24.8828125 C23.65297852 26.54957031 23.65297852 26.54957031 23.6875 28.25 C23.72166016 29.37664062 23.75582031 30.50328125 23.79101562 31.6640625 C23.87343014 34.44260901 23.94260298 37.22084252 24 40 C28.59542002 32.29155352 32.76533342 24.77808883 35.89453125 16.328125 C37 14 37 14 40 12 C42.2265625 11.98828125 42.2265625 11.98828125 44.625 12.3125 C45.42164063 12.41175781 46.21828125 12.51101563 47.0390625 12.61328125 C49 13 49 13 50 14 C50.15806531 15.92478813 50.251135 17.8549921 50.31640625 19.78515625 C50.35830078 20.95498047 50.40019531 22.12480469 50.44335938 23.33007812 C50.48267578 24.56177734 50.52199219 25.79347656 50.5625 27.0625 C50.60568359 28.29806641 50.64886719 29.53363281 50.69335938 30.80664062 C50.79984198 33.87097335 50.90185424 36.93539073 51 40 C54.61868581 32.94142565 57.96320177 25.89934387 60.82421875 18.49609375 C61.9777705 16.04719153 62.8937908 14.66897084 65 13 C68.50147041 11.8328432 71.32670036 11.86642547 75 12 C75.99 12.495 75.99 12.495 77 13 C76.37875352 18.34442175 74.65098954 22.84431422 72.5625 27.75 C72.21268066 28.5740332 71.86286133 29.39806641 71.50244141 30.24707031 C68.89850134 36.23442309 66.01906379 42.02872668 62.875 47.75 C62.47998291 48.47541992 62.08496582 49.20083984 61.67797852 49.94824219 C54.75343946 62.20340745 54.75343946 62.20340745 49.515625 63.71875 C48.76796875 63.6465625 48.0203125 63.574375 47.25 63.5 C46.11304688 63.42265625 46.11304688 63.42265625 44.953125 63.34375 C43 63 43 63 41 62 C40.54673095 59.04634485 40.20217916 56.15881132 39.9375 53.1875 C39.78240087 51.55575457 39.62492724 49.92423273 39.46484375 48.29296875 C39.399021 47.5661792 39.33319824 46.83938965 39.26538086 46.09057617 C38.9998849 43.99909328 38.55280323 42.03267668 38 40 C37.68772461 40.59014893 37.37544922 41.18029785 37.05371094 41.78833008 C35.6287016 44.4682653 34.18955368 47.14035137 32.75 49.8125 C32.01330078 51.2056543 32.01330078 51.2056543 31.26171875 52.62695312 C30.53662109 53.9659668 30.53662109 53.9659668 29.796875 55.33203125 C29.35698242 56.15421143 28.91708984 56.9763916 28.46386719 57.82348633 C26.88005452 60.17833789 25.39184214 61.49367124 23 63 C20.1829487 63.49431278 17.89880469 63.23377457 15 63 C12.1828075 60.1828075 12.34969685 57.19834124 11.96484375 53.40234375 C11.83946983 52.27814781 11.83946983 52.27814781 11.71156311 51.13124084 C11.44528878 48.73414776 11.19066937 46.3360098 10.9375 43.9375 C10.67925744 41.53562837 10.4185215 39.13409522 10.15272522 36.73304749 C9.9876716 35.2378281 9.82727242 33.74208654 9.67185974 32.24583435 C9.56325081 28.82928085 9.56325081 28.82928085 8 26 C5.98035801 25.92755947 3.95832876 25.91622812 1.9375 25.9375 C0.83277344 25.94652344 -0.27195312 25.95554687 -1.41015625 25.96484375 C-2.26480469 25.97644531 -3.11945312 25.98804688 -4 26 C-4.67466072 28.87333181 -5.3399234 31.74831482 -6 34.625 C-6.28617188 35.83736328 -6.28617188 35.83736328 -6.578125 37.07421875 C-6.75859375 37.86699219 -6.9390625 38.65976562 -7.125 39.4765625 C-7.29257812 40.19924316 -7.46015625 40.92192383 -7.6328125 41.66650391 C-8.15544244 44.59414348 -8.15544244 44.59414348 -8 50 C-3.71 50 0.58 50 5 50 C5.9681648 53.8726592 6.07622858 57.03611362 6 61 C-0.2357907 64.40134038 -5.96877486 64.72265369 -13 64 C-17.27421176 62.50027657 -19.68223141 60.90361026 -22 57 C-24.48713308 49.53860077 -22.79423345 41.45499851 -21.20703125 33.94140625 C-21.01912521 33.03043686 -20.83121918 32.11946747 -20.63761902 31.18089294 C-20.24025013 29.27482559 -19.83746176 27.36988056 -19.42944336 25.46606445 C-18.80983275 22.54994694 -18.22380249 19.62828397 -17.63867188 16.70507812 C-17.24681911 14.84592569 -16.85300826 12.98718464 -16.45703125 11.12890625 C-16.28597366 10.25706192 -16.11491608 9.38521759 -15.93867493 8.48695374 C-14.60470922 2.4898423 -14.60470922 2.4898423 -11.5065918 -0.01977539 C-6.5505998 -1.95785933 -4.96230781 -2.48115391 0 0 Z " fill="#E8BB00" transform="translate(646,413)"/>
<path d="M0 0 C5.22362235 3.15388519 8.08670318 7.20636525 10 13 C10.98054234 18.15285005 10.00509109 22.47052521 7.421875 27 C-3.51647194 42.38580669 -25.46001679 47.6671753 -43 50.6875 C-73.34038323 55.51234849 -73.34038323 55.51234849 -83.3671875 49.60546875 C-85 48 -85 48 -86 45.0625 C-86 42 -86 42 -84.6875 39.8125 C-81.55807688 37.70195883 -78.76024859 36.88726132 -75.14453125 35.88671875 C-54.86556856 30.16830318 -38.04638692 20.16713292 -21 8 C-19.04290657 6.62323576 -17.08476506 5.24795862 -15.125 3.875 C-13.98417969 3.06675781 -13.98417969 3.06675781 -12.8203125 2.2421875 C-8.69629048 -0.57205929 -4.88559502 -0.70853486 0 0 Z " fill="#F1CA28" transform="translate(443,332)"/>
<path d="M0 0 C5.62521591 2.26931787 9.13736008 5.61823695 12 11 C14.18390289 16.64174912 13.24691334 22.68453378 11.23046875 28.22265625 C6.3193032 39.3078585 -0.02541227 48.89707672 -8 58 C-8.67546875 58.85722656 -9.3509375 59.71445312 -10.046875 60.59765625 C-17.92006658 70.2816819 -33.85011464 82.80543019 -46.16796875 85.46875 C-48.0625 85.5625 -48.0625 85.5625 -51 85 C-53 82 -53 82 -52.87890625 79.12890625 C-51.85517562 75.4844252 -50.46128748 73.73834134 -47.9375 70.9375 C-35.27168854 56.06719604 -27.54566463 38.17035976 -20.859375 20.0078125 C-19.57004888 16.51351204 -18.2559775 13.03092972 -16.8984375 9.5625 C-16.42929932 8.36173828 -16.42929932 8.36173828 -15.95068359 7.13671875 C-12.63600146 -0.31322939 -7.48838279 -1.41333252 0 0 Z " fill="#F1CA28" transform="translate(351,235)"/>
<path d="M0 0 C2.18229397 0.02584781 4.36545402 -0.01121025 6.546875 -0.078125 C7.88018365 -0.10540127 9.21351889 -0.13140187 10.546875 -0.15625 C12.64525992 -0.19935408 14.74225642 -0.24973223 16.83984375 -0.32226562 C30.02067911 -0.7583046 30.02067911 -0.7583046 33.8671875 2.37890625 C38.46127448 8.02475307 38.40242505 12.95101336 38 20 C37.41178653 24.10560776 36.57273242 28.13673731 35.6875 32.1875 C35.47416016 33.22841797 35.26082031 34.26933594 35.04101562 35.34179688 C33.86122414 40.88857775 32.46531093 45.88863688 30 51 C28.1746875 51.061875 28.1746875 51.061875 26.3125 51.125 C25.62800781 51.14820313 24.94351562 51.17140625 24.23828125 51.1953125 C21.55150772 50.96086455 19.47640637 50.03646842 17 49 C17.14622803 48.2793335 17.29245605 47.55866699 17.44311523 46.81616211 C18.1099689 43.52368787 18.7737596 40.2306032 19.4375 36.9375 C19.66759766 35.80376953 19.89769531 34.67003906 20.13476562 33.50195312 C22.73816062 23.98096376 22.73816062 23.98096376 22.0625 14.5625 C21.711875 14.046875 21.36125 13.53125 21 13 C17.18186553 13.27540704 17.18186553 13.27540704 14 15 C13.52405627 17.49794669 13.09405084 19.99059996 12.6875 22.5 C11.60917625 28.8548214 10.383837 35.15580007 8.9375 41.4375 C8.77531982 42.16453125 8.61313965 42.8915625 8.44604492 43.640625 C7.24029635 48.75970365 7.24029635 48.75970365 5 51 C0.83062202 51.23600253 -2.94392005 50.98329211 -7 50 C-6.26039267 42.37036644 -4.89451682 34.97216604 -3.37304688 27.46484375 C-3.19708984 26.57410156 -3.02113281 25.68335938 -2.83984375 24.765625 C-2.59802368 23.57114746 -2.59802368 23.57114746 -2.35131836 22.35253906 C-1.97482541 19.83142295 -1.80596782 17.54403684 -2 15 C-2.66 14.34 -3.32 13.68 -4 13 C-6.60280568 13.32041397 -6.60280568 13.32041397 -9 14 C-10.43241584 18.08681234 -11.52698495 22.1118116 -12.40234375 26.3515625 C-12.65306641 27.53234375 -12.90378906 28.713125 -13.16210938 29.9296875 C-13.68044309 32.39993282 -14.1934375 34.87130433 -14.70117188 37.34375 C-14.95318359 38.52195312 -15.20519531 39.70015625 -15.46484375 40.9140625 C-15.687771 41.9860791 -15.91069824 43.0580957 -16.14038086 44.16259766 C-17.02529261 47.08348501 -17.86525368 48.82814169 -20 51 C-24.64663609 51.5162929 -27.76943472 50.81725313 -32 49 C-30.52019935 40.56232301 -28.89297324 32.15634223 -27.13305664 23.77294922 C-26.83410027 22.3317338 -26.54251944 20.88897023 -26.25805664 19.44482422 C-25.83973702 17.32626086 -25.39708763 15.21405077 -24.94921875 13.1015625 C-24.56769653 11.23491943 -24.56769653 11.23491943 -24.1784668 9.33056641 C-22.80544484 5.45015091 -21.13687501 3.61880068 -18 1 C-15.53515625 0.07421875 -15.53515625 0.07421875 -13.0625 -0.3125 C-12.19753906 -0.44914062 -11.33257813 -0.58578125 -10.44140625 -0.7265625 C-3.09803922 -1.54901961 -3.09803922 -1.54901961 0 0 Z " fill="#E9BC00" transform="translate(1141,426)"/>
<path d="M0 0 C8.13160333 9.3841988 8.25369096 18.87219296 7.546875 30.78515625 C6.25307801 40.0791291 1.03115633 48.24795098 -6.203125 54.16015625 C-15.19248861 60.34581971 -25.31092521 61.96996666 -35.953125 62.03515625 C-36.79488281 62.05578125 -37.63664062 62.07640625 -38.50390625 62.09765625 C-42.19159737 62.1208858 -45.04164103 61.92855218 -48.546875 60.70703125 C-50.453125 58.78515625 -50.453125 58.78515625 -50.71606445 55.89404297 C-50.56101156 50.53415996 -49.28712102 45.34218133 -48.15234375 40.12109375 C-47.79678154 38.45574081 -47.79678154 38.45574081 -47.43403625 36.75674438 C-46.93237734 34.41778038 -46.42702653 32.07960552 -45.91821289 29.7421875 C-45.14229654 26.16785636 -44.38395562 22.59009729 -43.62695312 19.01171875 C-43.13647521 16.73544874 -42.64497341 14.45939905 -42.15234375 12.18359375 C-41.92721603 11.11579681 -41.70208832 10.04799988 -41.47013855 8.94784546 C-41.14013603 7.45071518 -41.14013603 7.45071518 -40.8034668 5.92333984 C-40.61471481 5.04954681 -40.42596283 4.17575378 -40.23149109 3.27548218 C-39.34430371 0.4369904 -38.13527478 -1.76755032 -36.453125 -4.21484375 C-26.98969909 -8.94655671 -7.84779549 -7.06648841 0 0 Z M-25.453125 7.78515625 C-27.8448309 16.48348329 -30.10752743 25.21349768 -32.265625 33.97265625 C-32.49660889 34.88104248 -32.72759277 35.78942871 -32.96557617 36.7253418 C-33.1741626 37.58426025 -33.38274902 38.44317871 -33.59765625 39.328125 C-33.78690674 40.0914917 -33.97615723 40.8548584 -34.17114258 41.64135742 C-34.478487 43.97797335 -34.16941098 45.55730781 -33.453125 47.78515625 C-26.59843307 48.15237189 -21.06826921 47.58327787 -15.5 43.2734375 C-9.48359713 37.64885919 -6.97972081 31.51540847 -6.39453125 23.34765625 C-6.52609528 17.59392277 -7.93169532 13.30658593 -12.015625 9.22265625 C-16.59520539 7.307559 -20.55971854 7.43700875 -25.453125 7.78515625 Z " fill="#EBBD00" transform="translate(1251.453125,415.21484375)"/>
<path d="M0 0 C1.34771484 -0.00386719 1.34771484 -0.00386719 2.72265625 -0.0078125 C4.9375 0.125 4.9375 0.125 5.9375 1.125 C6.26367931 7.2378577 5.38981406 12.56169245 3.96875 18.48828125 C3.55845579 20.28056738 3.148304 22.07288612 2.73828125 23.86523438 C2.09021817 26.65024017 1.43825956 29.43427511 0.78271484 32.2175293 C-2.09809448 44.51268414 -4.30321309 55.52098884 -2.0625 68.125 C-6.1842079 70.12340383 -9.5027752 70.46275739 -14.0625 70.125 C-15.5475 69.135 -15.5475 69.135 -17.0625 68.125 C-17.866875 68.41375 -18.67125 68.7025 -19.5 69 C-25.0092602 70.73976638 -31.61329008 71.63108776 -37.06640625 69.25 C-41.27911351 66.04031828 -43.59123995 61.26407118 -44.36499023 56.11010742 C-44.49980702 53.98040396 -44.53046404 51.88368229 -44.5 49.75 C-44.49170166 49.00049072 -44.48340332 48.25098145 -44.47485352 47.47875977 C-44.20046205 38.4863361 -41.12239983 32.38608569 -34.9609375 25.84765625 C-28.37858906 19.87478452 -20.65149052 19.12006598 -12.0625 18.125 C-10.39461336 13.27231256 -9.07958267 8.39488184 -7.84375 3.41796875 C-6.46918215 -0.61638789 -3.81500423 -0.01097843 0 0 Z M-24.0625 34.125 C-28.68678338 38.86586196 -30.21542966 42.52421659 -30.3125 49.125 C-30.33828125 50.176875 -30.3640625 51.22875 -30.390625 52.3125 C-30.28554368 55.11407482 -30.28554368 55.11407482 -28.76953125 57.0078125 C-26.90519363 58.46226693 -26.90519363 58.46226693 -23.5 58 C-19.80807606 57.46866067 -19.80807606 57.46866067 -18.0625 54.125 C-17.12771517 51.02812779 -16.53008826 47.8541541 -15.875 44.6875 C-15.58979492 43.39875977 -15.58979492 43.39875977 -15.29882812 42.08398438 C-15.03682617 40.8377832 -15.03682617 40.8377832 -14.76953125 39.56640625 C-14.6094458 38.81045166 -14.44936035 38.05449707 -14.28442383 37.27563477 C-14.04558168 34.96104673 -14.36584621 33.32997644 -15.0625 31.125 C-19.48815546 31.125 -20.5798193 31.57669705 -24.0625 34.125 Z " fill="#EBBE00" transform="translate(1064.0625,406.875)"/>
<path d="M0 0 C7.30198263 8.28873704 7.61620769 22.39474138 7 33 C5.78433 46.85863801 2.00524459 59.44274007 -4.125 71.875 C-4.46160645 72.55933105 -4.79821289 73.24366211 -5.14501953 73.94873047 C-6.83082418 77.22284142 -7.87864877 78.91909918 -11 81 C-15.54054054 80.45945946 -15.54054054 80.45945946 -17 79 C-17.02673424 76.88933158 -16.9870851 74.77779897 -16.921875 72.66796875 C-16.46337637 52.86231856 -18.1120934 34.75255411 -22.61254883 15.3605957 C-22.7958374 14.56741943 -22.97912598 13.77424316 -23.16796875 12.95703125 C-23.33063232 12.27874268 -23.4932959 11.6004541 -23.66088867 10.90161133 C-24.24082659 7.64953326 -23.92535276 5.14619937 -23 2 C-16.48247226 -4.69367713 -7.92396782 -4.4852648 0 0 Z " fill="#F1C200" transform="translate(233,227)"/>
<path d="M0 0 C1.05791748 0.00410889 1.05791748 0.00410889 2.13720703 0.00830078 C8.30563785 0.13232516 13.60568687 0.79318687 18.125 5.3125 C17.87497427 9.81296315 15.70745696 12.73038227 13.125 16.3125 C8.375 15.4375 8.375 15.4375 6.125 14.3125 C1.46908333 13.81770746 -2.52320167 13.4636964 -6.5625 16 C-8.09864474 18.22262755 -8.09864474 18.22262755 -7.74609375 20.7421875 C-6.61113113 24.09109066 -5.214392 24.88270172 -2.25 26.75 C0.99398649 28.88787075 4.14174172 31.00765764 7.125 33.5 C7.66125 33.94730469 8.1975 34.39460938 8.75 34.85546875 C12.94770835 39.30360857 12.53948737 44.21695047 12.44140625 50.04296875 C11.882209 55.82134032 9.87746492 59.5113555 5.875 63.625 C-2.48300036 68.75377295 -10.17248125 69.24466347 -19.875 68.3125 C-24.70022252 67.11183131 -29.30632066 65.88117934 -32.875 62.3125 C-32.62497427 57.81203685 -30.45745696 54.89461773 -27.875 51.3125 C-24.76420606 51.75689913 -22.04321509 52.24368474 -19.125 53.4375 C-14.63287097 54.64691936 -10.40693341 54.32321896 -5.875 53.3125 C-3.60319646 51.43581681 -3.60319646 51.43581681 -3.4375 48.4375 C-3.57157289 45.24539432 -3.57157289 45.24539432 -5.75 43.375 C-7.59673491 42.15615496 -9.44412196 40.93829542 -11.29296875 39.72265625 C-17.44587062 35.56922028 -21.47058354 32.52574937 -23.875 25.3125 C-24.49516815 19.26586051 -24.03804008 13.60279591 -20.875 8.3125 C-15.07453373 1.70641341 -8.67046859 -0.067722 0 0 Z " fill="#E9BC00" transform="translate(528.875,408.6875)"/>
<path d="M0 0 C1.15018994 3.70739684 0.93355488 6.36964316 0.00390625 10.09765625 C-0.22538574 11.05873291 -0.45467773 12.01980957 -0.69091797 13.01000977 C-0.93729004 14.01733154 -1.18366211 15.02465332 -1.4375 16.0625 C-3.79815193 26.26303481 -5.30687305 35.61907129 -3 46 C-7.77830905 48.91360308 -10.55106131 49.19876651 -16 48 C-16 47.34 -16 46.68 -16 46 C-16.6290625 46.2165625 -17.258125 46.433125 -17.90625 46.65625 C-24.74437867 48.8807015 -30.21098967 50.23871492 -37.25 47.9375 C-41.74234699 44.77243735 -43.97357355 40.40584598 -45 35 C-45.76402462 24.15672748 -44.8756964 14.44296557 -37.7890625 5.8203125 C-28.52278029 -3.60782616 -11.59665984 -8.54490725 0 0 Z M-25 12 C-30.29227079 17.58628584 -31.2247157 22.22741344 -31.16796875 29.6953125 C-31.08347963 32.16028247 -31.08347963 32.16028247 -30 35 C-27.20129973 36.39935013 -25.09501208 36.25265405 -22 36 C-19.27673219 33.89625505 -18.4981527 32.04370598 -17.796875 28.7265625 C-17.53390625 27.4890625 -17.53390625 27.4890625 -17.265625 26.2265625 C-17.01039062 24.93878906 -17.01039062 24.93878906 -16.75 23.625 C-16.564375 22.77421875 -16.37875 21.9234375 -16.1875 21.046875 C-15.30591762 16.75917889 -14.62583852 13.28104152 -16 9 C-19.8148669 9 -21.72675616 10.06277405 -25 12 Z " fill="#EBBE00" transform="translate(1305,428)"/>
<path d="M0 0 C0.53501651 5.33678972 -0.64299823 10.01500435 -2 15.125 C-4.54459756 25.41468911 -4.37397222 35.46644919 -4 46 C-10.83572753 49.57837118 -10.83572753 49.57837118 -15 49 C-15.66 48.34 -16.32 47.68 -17 47 C-18.86383821 47.2033278 -20.72721469 47.41774479 -22.58203125 47.69140625 C-28.54938697 48.45299123 -33.96494161 48.94484854 -39.5 46.375 C-44.79545316 41.3443195 -45.59093664 36.20912511 -45.9921875 29.15234375 C-46.01496683 19.96088283 -43.9283282 12.17254523 -38 5 C-27.81504954 -4.19711245 -12.11868966 -8.07912644 0 0 Z M-22.9375 9.9375 C-27.57487346 13.06062907 -30.18787221 16.87805422 -31.6015625 22.3125 C-32.28514517 27.0180923 -31.98679233 30.58490593 -30 35 C-28.89471558 36.31968178 -28.89471558 36.31968178 -26.125 36.25 C-23.10015845 36.27738135 -23.10015845 36.27738135 -21.40625 34.86328125 C-16.63736418 28.54450754 -16.50471462 17.70995096 -16 10 C-18.95362642 9.09168048 -19.86398944 8.95659237 -22.9375 9.9375 Z " fill="#EABD00" transform="translate(763,428)"/>
<path d="M0 0 C1.12563103 0.00212242 1.12563103 0.00212242 2.27400208 0.00428772 C4.66838585 0.00988065 7.06267578 0.02243181 9.45703125 0.03515625 C11.08137886 0.04017217 12.70572793 0.04473491 14.33007812 0.04882812 C18.30993194 0.05984777 22.28971569 0.07710752 26.26953125 0.09765625 C28.70398269 4.67502237 28.33407874 7.02058359 27.26953125 12.09765625 C23.98205709 14.28930569 22.784583 14.38445011 18.9453125 14.51171875 C17.91728516 14.55039062 16.88925781 14.5890625 15.83007812 14.62890625 C14.22229492 14.6753125 14.22229492 14.6753125 12.58203125 14.72265625 C11.49857422 14.76132812 10.41511719 14.8 9.29882812 14.83984375 C6.62267791 14.93415741 3.94612783 15.01699751 1.26953125 15.09765625 C0.27953125 18.72765625 -0.71046875 22.35765625 -1.73046875 26.09765625 C-0.29832031 26.08605469 1.13382813 26.07445312 2.609375 26.0625 C4.47525912 26.0531237 6.34114464 26.04402333 8.20703125 26.03515625 C9.15255859 26.02677734 10.09808594 26.01839844 11.07226562 26.00976562 C12.42094727 26.00493164 12.42094727 26.00493164 13.796875 26 C15.04585571 25.99214478 15.04585571 25.99214478 16.32006836 25.98413086 C18.26953125 26.09765625 18.26953125 26.09765625 19.26953125 27.09765625 C19.53125281 31.63416333 19.31250167 35.01171542 17.26953125 39.09765625 C16.93953125 39.42765625 16.60953125 39.75765625 16.26953125 40.09765625 C12.49871583 40.05605247 8.73762404 39.96950815 4.97070312 39.79492188 C1.38111988 39.71631786 -1.01141715 39.69103601 -4.17578125 41.48046875 C-6.54679124 45.47186747 -7.07267651 49.61553211 -7.79296875 54.16015625 C-8.08552695 55.96532975 -8.38850033 57.76885393 -8.703125 59.5703125 C-8.82953369 60.36703369 -8.95594238 61.16375488 -9.08618164 61.98461914 C-9.84063291 64.45895629 -10.70470397 65.51457937 -12.73046875 67.09765625 C-15.140625 67.4609375 -15.140625 67.4609375 -17.79296875 67.41015625 C-19.10974609 67.40435547 -19.10974609 67.40435547 -20.453125 67.3984375 C-22.73046875 67.09765625 -22.73046875 67.09765625 -24.73046875 65.09765625 C-24.32285762 57.99950791 -22.80124628 51.13867555 -21.296875 44.203125 C-21.0588768 43.09334793 -20.8208786 41.98357086 -20.57566833 40.84016418 C-20.07441469 38.50925214 -19.57088279 36.17882898 -19.06518555 33.84887695 C-18.29192837 30.28035497 -17.52934055 26.70966309 -16.76757812 23.13867188 C-16.27798396 20.86835143 -15.78777119 18.59816428 -15.296875 16.328125 C-15.06972305 15.26144089 -14.84257111 14.19475677 -14.60853577 13.0957489 C-14.39168625 12.1040419 -14.17483673 11.1123349 -13.95141602 10.09057617 C-13.76345963 9.22059494 -13.57550323 8.35061371 -13.3818512 7.45426941 C-12.7282248 5.08953793 -12.04623066 3.17035661 -10.73046875 1.09765625 C-7.09813773 -0.11312076 -3.77924888 -0.02678539 0 0 Z " fill="#EABD00" transform="translate(884.73046875,409.90234375)"/>
<path d="M0 0 C2.13278224 3.19917335 2.32719304 4.45732028 2.59765625 8.18359375 C2.67693359 9.19357422 2.75621094 10.20355469 2.83789062 11.24414062 C2.91201172 12.29794922 2.98613281 13.35175781 3.0625 14.4375 C3.21716664 16.51974759 3.37460934 18.60179129 3.53515625 20.68359375 C3.600979 21.60712646 3.66680176 22.53065918 3.73461914 23.48217773 C3.97334135 25.74707394 4.38218568 27.81218787 5 30 C9.40288868 21.37826861 9.40288868 21.37826861 12 12.125 C12.85312013 7.30842595 15.43961356 4.25078762 19 1 C21.52475462 -0.26237731 23.31200466 -0.09856404 26.125 -0.0625 C27.03507812 -0.05347656 27.94515625 -0.04445313 28.8828125 -0.03515625 C29.93082031 -0.01775391 29.93082031 -0.01775391 31 0 C31 2.64 31 5.28 31 8 C30.34 8.33 29.68 8.66 29 9 C27.7658317 11.77687868 26.61808456 14.55164332 25.5 17.375 C19.33059973 32.42037613 11.71794502 46.38131708 2.75878906 59.94726562 C2.26862305 60.69685547 1.77845703 61.44644531 1.2734375 62.21875 C0.83435059 62.87810547 0.39526367 63.53746094 -0.05712891 64.21679688 C-1.23371583 66.10582603 -1.23371583 66.10582603 -1 69 C-5.62 69 -10.24 69 -15 69 C-14.73117375 62.95140938 -12.52866612 59.10347523 -9.27734375 54.0390625 C-6.06061655 46.38580941 -8.55113416 37.69891546 -9.9375 29.8125 C-14.07841053 5.15682105 -14.07841053 5.15682105 -12 1 C-8.04587834 0.23959199 -4.0189569 -0.45930936 0 0 Z " fill="#E7BA00" transform="translate(1321,425)"/>
<path d="M0 0 C17.79704221 6.79574069 29.68826099 27.32188423 37.50390625 43.6015625 C39.47117578 48.07029486 40.13937111 51.32287813 40.125 56.1875 C40.12886719 57.50814453 40.12886719 57.50814453 40.1328125 58.85546875 C40 61 40 61 39 62 C36.1413606 62.31495747 34.59215042 62.44223788 32.24584961 60.68994141 C31.71999268 60.08327637 31.19413574 59.47661133 30.65234375 58.8515625 C30.05357422 58.1807666 29.45480469 57.5099707 28.83789062 56.81884766 C27.89719727 55.73289307 27.89719727 55.73289307 26.9375 54.625 C15.75396399 42.24089452 3.14171169 33.12213669 -10.84765625 24.1796875 C-11.64042969 23.66664063 -12.43320313 23.15359375 -13.25 22.625 C-13.91515625 22.20476562 -14.5803125 21.78453125 -15.265625 21.3515625 C-17.31835626 19.75191157 -18.63791365 18.21861305 -20 16 C-20.13996028 11.73121135 -20.05001108 9.36684734 -17.43359375 5.9609375 C-11.89846698 0.34492162 -7.92770014 -1.11500705 0 0 Z " fill="#EDBF00" transform="translate(108,271)"/>
<path d="M0 0 C4.68357707 2.74884789 7.31576513 5.88642794 8.8125 11.125 C10.87456323 21.10092752 9.25356726 31.43075587 3.9375 40.1875 C0.06700035 45.5227752 -5.19926018 49.23308673 -11.4375 51.3125 C-17.50764662 51.93507914 -23.09726049 51.41403649 -28.4375 48.3125 C-34.05557835 42.93868592 -35.49381445 37.57882249 -35.75 30 C-35.53024628 20.55059023 -32.6047449 12.52597394 -26.4375 5.3125 C-18.86641438 -1.5129484 -9.78422922 -4.56106926 0 0 Z M-15.16796875 12.59375 C-19.4092142 17.36907821 -21.47125947 21.95986417 -21.6875 28.375 C-21.44692281 33.14691782 -21.44692281 33.14691782 -19.4375 37.3125 C-16.62892252 38.57260343 -16.62892252 38.57260343 -13.4375 38.3125 C-9.13267719 35.80969604 -7.15042447 32.93739606 -5.4375 28.3125 C-4.29743175 22.52736027 -3.97268885 17.82207788 -6.4375 12.3125 C-10.98420204 10.87051508 -10.98420204 10.87051508 -15.16796875 12.59375 Z " fill="#EABD00" transform="translate(1101.4375,426.6875)"/>
<path d="M0 0 C5.81874982 5.40312483 7.32502097 11.47947816 7.71875 19.28515625 C7.42065263 29.30868032 4.07428542 37.82308472 -2.921875 45.03125 C-8.72591036 50.17709578 -13.9962196 50.83992251 -21.5 50.68359375 C-26.81496177 50.22864458 -29.41954263 48.39295737 -33.125 44.6875 C-37.46422636 38.41972859 -38.21003305 31.87032504 -37.375 24.4375 C-35.17180873 14.42191157 -32.04129078 6.1822707 -23.25 0.44140625 C-15.85496848 -3.51801687 -7.57165633 -3.50539645 0 0 Z M-18.375 13.4375 C-22.76779463 19.40229806 -23.77672708 25.07250351 -23.375 32.4375 C-22.99868888 34.85968117 -22.99868888 34.85968117 -21.375 36.4375 C-18.11319867 37.86856218 -18.11319867 37.86856218 -14.375 37.4375 C-10.05194676 34.18295652 -7.44941555 29.70213619 -6.375 24.4375 C-5.95849808 19.85597893 -5.83894869 15.42272349 -8.375 11.4375 C-12.58951804 9.61500571 -14.93072166 10.61142547 -18.375 13.4375 Z " fill="#E9BC00" transform="translate(581.375,426.5625)"/>
<path d="M0 0 C3.6029444 3.95445117 4.35577875 6.95200875 4.9375 12.1875 C4.29974702 18.35244547 2.11464442 22.26035558 -2.25 26.625 C-7.78095611 30.23108592 -15.02166372 30.79686568 -21.4375 31.8125 C-21.4375 32.8025 -21.4375 33.7925 -21.4375 34.8125 C-17.79833192 37.23861205 -16.61379917 36.87459115 -12.375 36.375 C-6.63454433 35.71397783 -6.63454433 35.71397783 -4.4375 36.8125 C-3.256567 40.355299 -3.16721626 43.09609861 -3.4375 46.8125 C-9.80424438 51.05699625 -18.03942752 50.53976814 -25.4375 49.8125 C-30.26573144 48.16365527 -33.26442881 45.53230223 -35.875 41.1875 C-39.70621162 32.91208291 -39.09225078 25.11076072 -36.47265625 16.484375 C-33.50550477 8.82576514 -28.70693022 2.75343653 -21.4375 -1.1875 C-14.56909144 -3.82731539 -6.1526547 -4.62942465 0 0 Z M-19.4375 11.8125 C-22.45994091 15.4183945 -22.45994091 15.4183945 -23.4375 19.8125 C-17.93486379 20.09711911 -14.11624276 20.12185464 -9.4375 16.8125 C-8.20065895 14.38150326 -8.20065895 14.38150326 -8.4375 11.8125 C-9.64668882 9.93609581 -9.64668882 9.93609581 -11.4375 8.8125 C-14.67714584 8.8125 -16.68646853 10.16188112 -19.4375 11.8125 Z " fill="#E8BC00" transform="translate(833.4375,427.1875)"/>
<path d="M0 0 C3.91187399 2.06853891 6.39348201 4.13129033 7.89453125 8.28125 C8.78232335 15.43907383 8.26627407 20.49164465 3.89453125 26.28125 C-1.71005334 32.39534228 -11.18970822 33.40172105 -19.10546875 34.28125 C-18.77546875 35.27125 -18.44546875 36.26125 -18.10546875 37.28125 C-15.65896214 38.50450331 -14.02119024 38.41443057 -11.29296875 38.40625 C-10.44089844 38.40882813 -9.58882812 38.41140625 -8.7109375 38.4140625 C-6.08627153 38.28027143 -3.66552544 37.86036516 -1.10546875 37.28125 C-0.71510362 38.88174704 -0.34368256 40.48687371 0.01953125 42.09375 C0.22835937 42.98707031 0.4371875 43.88039063 0.65234375 44.80078125 C0.89453125 47.28125 0.89453125 47.28125 -1.10546875 50.28125 C-8.13065796 53.12122011 -16.23439895 53.47115699 -23.48046875 51.15625 C-28.45841926 48.98349701 -31.19344175 45.56452885 -33.21484375 40.50390625 C-35.7891568 31.1889577 -34.7978315 21.68657268 -30.10546875 13.28125 C-24.12493201 2.97436753 -12.05850477 -4.1164469 0 0 Z M-17.10546875 15.28125 C-19.47526888 18.23502498 -19.47526888 18.23502498 -19.10546875 22.28125 C-12.41869278 22.11544914 -12.41869278 22.11544914 -6.41796875 19.53125 C-4.83427044 17.31607471 -4.83427044 17.31607471 -5.35546875 14.53125 C-5.60296875 13.78875 -5.85046875 13.04625 -6.10546875 12.28125 C-10.35945939 10.23933449 -13.67725576 12.6805367 -17.10546875 15.28125 Z " fill="#E8BB00" transform="translate(971.10546875,425.71875)"/>
<path d="M0 0 C3.76678988 2.54039317 6.08796533 4.56907995 7.29296875 9.078125 C8.12536068 14.45158579 7.77374186 18.36224337 4.96875 23.0625 C0.17907114 29.6045004 -5.54076983 31.39741618 -13.3125 32.8125 C-15.71896148 33.00335729 -17.89730322 32.97351312 -20.3125 32.8125 C-19.0035428 35.93447478 -19.0035428 35.93447478 -16.3125 37.8125 C-14.68981009 37.90861752 -13.06302694 37.94232352 -11.4375 37.9375 C-10.57382812 37.94007813 -9.71015625 37.94265625 -8.8203125 37.9453125 C-6.50584029 37.82273921 -4.52960884 37.46216445 -2.3125 36.8125 C-0.52278631 40.61564159 0.23579905 43.60887393 -0.3125 47.8125 C-3.5399195 51.27898761 -7.02221463 51.6503209 -11.57421875 51.97265625 C-18.86920865 52.22960076 -24.25815234 51.12022934 -30.125 46.6875 C-34.80137162 40.54141159 -36.33031545 33.42244577 -35.3125 25.8125 C-33.49503413 16.17993089 -29.98048136 9.07428415 -22.3125 2.8125 C-15.25932396 -1.44372692 -7.81087966 -2.80012667 0 0 Z M-17.3125 14.8125 C-19.72886294 17.47049923 -20.3125 18.16544333 -20.3125 21.8125 C-15.10554044 22.12491757 -11.68766653 21.76319371 -7.3125 18.8125 C-5.88692644 16.25528263 -5.88692644 16.25528263 -5.3125 13.8125 C-6.62451173 12.25000191 -6.62451173 12.25000191 -8.3125 10.8125 C-12.38550169 10.8125 -14.09186711 12.39702534 -17.3125 14.8125 Z " fill="#E7BB00" transform="translate(1013.3125,426.1875)"/>
<path d="M0 0 C3.70806596 -0.11674705 7.4156554 -0.18743274 11.125 -0.25 C12.17171875 -0.28351563 13.2184375 -0.31703125 14.296875 -0.3515625 C20.55955215 -0.43083689 24.2600516 -0.23209678 29 4 C33.01244424 8.43480679 33.42531743 11.89462069 33.3359375 17.6328125 C32.98207213 20.12632895 32.2501518 21.82973647 31 24 C31.99 24.33 32.98 24.66 34 25 C36.88526541 30.77053082 38.00983446 35.734706 36 42 C33.66753705 46.10326259 31.42632342 48.43912803 27 50.1796875 C21.94739482 51.46455391 16.80285043 51.2518001 11.625 51.1875 C10.61566406 51.18685547 9.60632812 51.18621094 8.56640625 51.18554688 C1.14057211 51.14057211 1.14057211 51.14057211 0 50 C-0.09326716 48.43452952 -0.11745582 46.86487228 -0.11352539 45.29663086 C-0.11344986 44.29566879 -0.11337433 43.29470673 -0.11329651 42.26341248 C-0.10813522 41.1748848 -0.10297394 40.08635712 -0.09765625 38.96484375 C-0.0962413 37.85645645 -0.09482635 36.74806915 -0.09336853 35.60609436 C-0.08775033 32.04986931 -0.07519475 28.49370617 -0.0625 24.9375 C-0.05748734 22.53320403 -0.05292403 20.12890708 -0.04882812 17.72460938 C-0.03777499 11.81638496 -0.02101917 5.9081969 0 0 Z M11 10 C11 14.29 11 18.58 11 23 C12.258125 22.566875 13.51625 22.13375 14.8125 21.6875 C15.87404297 21.32205078 15.87404297 21.32205078 16.95703125 20.94921875 C19.18825954 19.91252951 20.47579075 18.92582629 22 17 C21.99843776 14.40882687 21.99843776 14.40882687 21 12 C17.3558226 9.5705484 15.28758728 9.83820425 11 10 Z M11 36 C11 37.32 11 38.64 11 40 C12.58246707 40.08153933 14.16616273 40.13943557 15.75 40.1875 C16.63171875 40.22230469 17.5134375 40.25710938 18.421875 40.29296875 C21.49122201 39.94417932 22.80597774 39.143352 25 37 C25.41717279 34.41537838 25.41717279 34.41537838 25 32 C23.98484742 30.79511076 23.98484742 30.79511076 21.9375 30.625 C17.71247657 31.16436469 14.10886254 33.06856634 11 36 Z " fill="#1D7C1D" transform="translate(1191,500)"/>
<path d="M0 0 C-0.28241641 1.46015291 -0.57626614 2.91809793 -0.875 4.375 C-1.03742187 5.18710937 -1.19984375 5.99921875 -1.3671875 6.8359375 C-2 9 -2 9 -4 11 C-6.71484375 11.34375 -6.71484375 11.34375 -9.9375 11.5 C-14.77502897 11.71104199 -14.77502897 11.71104199 -19 14 C-20.00168531 15.94832935 -20.00168531 15.94832935 -20.6875 18.125 C-20.93886719 18.84945313 -21.19023438 19.57390625 -21.44921875 20.3203125 C-21.63097656 20.87460937 -21.81273437 21.42890625 -22 22 C-21.34 21.67 -20.68 21.34 -20 21 C-16.16063232 20.8578012 -12.67983361 20.82245324 -9 22 C-8.63426689 29.43657331 -8.63426689 29.43657331 -10.15625 31.78125 C-12.80662744 33.53319441 -14.58227164 33.08935308 -17.6875 32.6875 C-18.68136719 32.56761719 -19.67523437 32.44773437 -20.69921875 32.32421875 C-21.45847656 32.21722656 -22.21773437 32.11023438 -23 32 C-24.51088955 36.29682247 -25.63119753 40.55574701 -26.5859375 45.0078125 C-26.87950582 46.33739489 -27.17379825 47.66681757 -27.46875 48.99609375 C-27.92537297 51.06615068 -28.37749601 53.13676652 -28.81738281 55.21044922 C-29.24760793 57.22945469 -29.69641892 59.24359007 -30.1484375 61.2578125 C-30.40802246 62.4555127 -30.66760742 63.65321289 -30.93505859 64.88720703 C-32.09140543 68.26717542 -33.2310605 69.78891645 -36 72 C-38.2890625 72.64453125 -38.2890625 72.64453125 -40.625 72.8125 C-41.40101563 72.88082031 -42.17703125 72.94914062 -42.9765625 73.01953125 C-45 73 -45 73 -47 72 C-46.38391131 65.48894131 -45.30879346 59.25548282 -43.85546875 52.8828125 C-43.64440994 51.94500946 -43.43335114 51.00720642 -43.21589661 50.04098511 C-42.77038512 48.06890919 -42.32232284 46.09740794 -41.87182617 44.12646484 C-41.19143018 41.14223784 -40.5239807 38.15531279 -39.85742188 35.16796875 C-33.52877881 7.11603631 -33.52877881 7.11603631 -25 0 C-17.13347723 -4.84093709 -7.92976737 -4.13726993 0 0 Z " fill="#E8BB00" transform="translate(634,405)"/>
<path d="M0 0 C1.76421124 -0.10065029 3.53007368 -0.17265212 5.29614258 -0.23242188 C6.27923904 -0.27556519 7.26233551 -0.3187085 8.27522278 -0.36315918 C11 0 11 0 12.90861511 1.7286377 C14.39442605 3.91393271 15.5546553 6.11286661 16.6875 8.5 C17.11482422 9.31082031 17.54214844 10.12164062 17.98242188 10.95703125 C19.02834567 12.95486322 20.03027947 14.96438304 21 17 C21.06058594 15.85660156 21.12117187 14.71320312 21.18359375 13.53515625 C21.26798428 12.04425695 21.35263302 10.55337225 21.4375 9.0625 C21.47681641 8.30775391 21.51613281 7.55300781 21.55664062 6.77539062 C21.88671875 1.11328125 21.88671875 1.11328125 23 0 C24.68608966 -0.07205511 26.37500659 -0.08386068 28.0625 -0.0625 C28.98160156 -0.05347656 29.90070312 -0.04445313 30.84765625 -0.03515625 C31.55792969 -0.02355469 32.26820313 -0.01195312 33 0 C33.02526787 7.10244999 33.04283201 14.20488848 33.05493164 21.30737305 C33.05997349 23.72567172 33.06680678 26.14396733 33.07543945 28.56225586 C33.08751157 32.02979283 33.09322963 35.49728966 33.09765625 38.96484375 C33.10281754 40.05337143 33.10797882 41.14189911 33.11329651 42.26341248 C33.11337204 43.26437454 33.11344757 44.26533661 33.11352539 45.29663086 C33.115746 46.18265488 33.11796661 47.06867889 33.12025452 47.98155212 C33 50 33 50 32 51 C30.50261876 51.0979057 29.00057108 51.12974864 27.5 51.125 C26.6853125 51.12757813 25.870625 51.13015625 25.03125 51.1328125 C23 51 23 51 22 50 C21.80398392 48.25093341 21.61852597 46.50068154 21.4375 44.75 C20.24083855 36.91045412 16.45286861 31.4204152 12 25 C11.97494385 25.7520874 11.9498877 26.5041748 11.92407227 27.27905273 C11.80849486 30.66539196 11.68559655 34.05142613 11.5625 37.4375 C11.52318359 38.62150391 11.48386719 39.80550781 11.44335938 41.02539062 C11.40146484 42.15009766 11.35957031 43.27480469 11.31640625 44.43359375 C11.27974854 45.47572021 11.24309082 46.51784668 11.20532227 47.59155273 C11 50 11 50 10 51 C8.50261876 51.0979057 7.00057108 51.12974864 5.5 51.125 C4.6853125 51.12757813 3.870625 51.13015625 3.03125 51.1328125 C1 51 1 51 0 50 C-0.09326716 48.43452952 -0.11745582 46.86487228 -0.11352539 45.29663086 C-0.11344986 44.29566879 -0.11337433 43.29470673 -0.11329651 42.26341248 C-0.10813522 41.1748848 -0.10297394 40.08635712 -0.09765625 38.96484375 C-0.0962413 37.85645645 -0.09482635 36.74806915 -0.09336853 35.60609436 C-0.08775033 32.04986931 -0.07519475 28.49370617 -0.0625 24.9375 C-0.05748734 22.53320403 -0.05292403 20.12890708 -0.04882812 17.72460938 C-0.03777499 11.81638496 -0.02101917 5.9081969 0 0 Z " fill="#1C7A1C" transform="translate(792,500)"/>
<path d="M0 0 C1.77055645 -0.08588279 3.54230686 -0.14740924 5.31420898 -0.19848633 C6.30065903 -0.23533035 7.28710907 -0.27217438 8.30345154 -0.31013489 C11 0 11 0 12.77320862 1.47468567 C14.09769203 3.35311105 15.08942546 5.23061754 16.0625 7.3125 C16.42537109 8.00279297 16.78824219 8.69308594 17.16210938 9.40429688 C18.13373607 11.25629252 19.06879376 13.12735448 20 15 C20.99 16.485 20.99 16.485 22 18 C22.33 12.06 22.66 6.12 23 0 C26.3 0 29.6 0 33 0 C33 16.83 33 33.66 33 51 C29.7 51 26.4 51 23 51 C22.87625 50.21238281 22.7525 49.42476562 22.625 48.61328125 C20.84788139 39.22787359 17.35123437 32.76628076 12 25 C11.97494385 25.7520874 11.9498877 26.5041748 11.92407227 27.27905273 C11.80849486 30.66539196 11.68559655 34.05142613 11.5625 37.4375 C11.52318359 38.62150391 11.48386719 39.80550781 11.44335938 41.02539062 C11.40146484 42.15009766 11.35957031 43.27480469 11.31640625 44.43359375 C11.27974854 45.47572021 11.24309082 46.51784668 11.20532227 47.59155273 C11 50 11 50 10 51 C8.50261876 51.0979057 7.00057108 51.12974864 5.5 51.125 C4.6853125 51.12757813 3.870625 51.13015625 3.03125 51.1328125 C1 51 1 51 0 50 C-0.09326716 48.43452952 -0.11745582 46.86487228 -0.11352539 45.29663086 C-0.11344986 44.29566879 -0.11337433 43.29470673 -0.11329651 42.26341248 C-0.10813522 41.1748848 -0.10297394 40.08635712 -0.09765625 38.96484375 C-0.0962413 37.85645645 -0.09482635 36.74806915 -0.09336853 35.60609436 C-0.08775033 32.04986931 -0.07519475 28.49370617 -0.0625 24.9375 C-0.05748734 22.53320403 -0.05292403 20.12890708 -0.04882812 17.72460938 C-0.03777499 11.81638496 -0.02101917 5.9081969 0 0 Z " fill="#1D7C1D" transform="translate(496,500)"/>
<path d="M0 0 C1.47919922 -0.04350586 1.47919922 -0.04350586 2.98828125 -0.08789062 C9.37050654 -0.14327709 13.18734179 0.51937357 18.375 4.3125 C21.42703316 8.07667424 22.21973525 11.49929287 22.375 16.3125 C21.66356613 19.2151502 20.82441794 22.02709233 19.87109375 24.859375 C19.70738281 25.66890625 19.54367187 26.4784375 19.375 27.3125 C20.035 28.3025 20.695 29.2925 21.375 30.3125 C22.79592194 36.84874091 22.70311856 43.65362341 22.375 50.3125 C21.375 51.3125 21.375 51.3125 19.08984375 51.41015625 C17.71505859 51.39275391 17.71505859 51.39275391 16.3125 51.375 C15.39339844 51.36597656 14.47429688 51.35695313 13.52734375 51.34765625 C12.81707031 51.33605469 12.10679687 51.32445312 11.375 51.3125 C11.31441406 50.18070313 11.25382813 49.04890625 11.19140625 47.8828125 C11.10700083 46.40102855 11.02235283 44.9192584 10.9375 43.4375 C10.89818359 42.69113281 10.85886719 41.94476562 10.81835938 41.17578125 C10.65926376 37.11263136 10.65926376 37.11263136 9.375 33.3125 C5.40655917 34.59956189 3.54548391 35.7432598 1.375 39.3125 C0.58871974 42.34518887 0.58871974 42.34518887 0.1875 45.5625 C0.02894531 46.64015625 -0.12960937 47.7178125 -0.29296875 48.828125 C-0.40253906 49.64796875 -0.51210938 50.4678125 -0.625 51.3125 C-2.27074566 51.33938151 -3.91661413 51.35884123 -5.5625 51.375 C-6.47902344 51.38660156 -7.39554688 51.39820313 -8.33984375 51.41015625 C-10.625 51.3125 -10.625 51.3125 -11.625 50.3125 C-11.72339214 48.7831537 -11.75298539 47.24930434 -11.75439453 45.71679688 C-11.75754669 44.73908325 -11.76069885 43.76136963 -11.76394653 42.75402832 C-11.7619223 41.69051147 -11.75989807 40.62699463 -11.7578125 39.53125 C-11.75876923 38.44743042 -11.75972595 37.36361084 -11.76071167 36.24694824 C-11.76139365 33.9502761 -11.75953811 31.65360205 -11.75537109 29.35693359 C-11.75002312 25.82775572 -11.7553155 22.29870513 -11.76171875 18.76953125 C-11.76105797 16.54427055 -11.75977682 14.31900993 -11.7578125 12.09375 C-11.75983673 11.03023315 -11.76186096 9.96671631 -11.76394653 8.87097168 C-11.76079437 7.89325806 -11.75764221 6.91554443 -11.75439453 5.90820312 C-11.75359894 5.04296021 -11.75280334 4.17771729 -11.75198364 3.28625488 C-11.42334418 -1.82191279 -3.86835754 0.03705323 0 0 Z M-0.625 11.3125 C-0.69771741 13.66563555 -0.70870868 16.02083668 -0.6875 18.375 C-0.67847656 19.66535156 -0.66945313 20.95570313 -0.66015625 22.28515625 C-0.64855469 23.28417969 -0.63695312 24.28320312 -0.625 25.3125 C4.43307862 23.43722595 8.81234652 21.17736471 11.5 16.25 C11.52547763 14.13198264 11.52547763 14.13198264 9.875 12.0625 C7.04493468 10.08145428 2.22318362 8.46431638 -0.625 11.3125 Z " fill="#1C791C" transform="translate(977.625,499.6875)"/>
<path d="M0 0 C5.93320318 2.96660159 9.63428406 7.4636704 12.75 13.25 C15.80871806 22.42615419 15.59211745 31.49449123 11.99609375 40.51953125 C9.43700712 45.61236703 6.45074109 49.88083337 1 52 C-4.3455765 52.87147681 -8.55015864 52.7117403 -13.4375 50.3125 C-19.95819271 44.42797244 -23.51393478 37.61522912 -24.16015625 28.8203125 C-24.46470264 20.31949594 -22.82252515 12.25201827 -17.4375 5.47265625 C-12.48829377 0.40240965 -6.99485654 -1.25319185 0 0 Z M-7 11 C-12.05680119 17.3571215 -12.65119776 23.10274721 -12 31 C-11.08279155 35.29715768 -9.94447631 38.29713391 -6.3125 41 C-5.549375 41.33 -4.78625 41.66 -4 42 C0.20380195 38.90246172 1.44576295 36.3991513 2.4375 31.25 C3.33500965 24.30071099 2.80286626 18.94468156 -0.875 12.9375 C-3.01335735 10.55083076 -3.01335735 10.55083076 -7 11 Z " fill="#1C7B1C" transform="translate(706,499)"/>
<path d="M0 0 C6.42265727 2.44563818 10.17368196 6.86677543 13 13 C16.53803063 22.03957564 15.85727939 31.59711599 12.2734375 40.48046875 C9.68181923 45.60805704 6.44250671 49.8448468 1 52 C-4.67128571 52.9158598 -9.61516409 52.82949271 -14.4375 49.5 C-19.07194746 45.50183938 -21.10275008 40.69174977 -23 35 C-24.25238752 15.76250642 -24.25238752 15.76250642 -19 8 C-13.19563996 1.77121047 -8.60757214 -1.18250991 0 0 Z M-7.625 12.25 C-11.83636546 17.60991968 -12.35462318 23.83646114 -11.7890625 30.4765625 C-10.83741276 35.8453035 -9.21661048 38.56013356 -5 42 C-1.41076694 40.44789922 0.33972701 38.92948096 1.8125 35.375 C4.29679229 27.62400805 3.27638731 21.30886401 0 14 C-0.66 13.01 -1.32 12.02 -2 11 C-5.81327608 10.59352616 -5.81327608 10.59352616 -7.625 12.25 Z " fill="#1C7A1C" transform="translate(911,499)"/>
<path d="M0 0 C3.81611994 1.98503054 6.13940694 4.31921305 7.77734375 8.26953125 C7.77734375 9.91953125 7.77734375 11.56953125 7.77734375 13.26953125 C2.82734375 14.75453125 2.82734375 14.75453125 -2.22265625 16.26953125 C-2.77953125 15.44453125 -3.33640625 14.61953125 -3.91015625 13.76953125 C-5.97192758 10.99498985 -5.97192758 10.99498985 -8.97265625 10.95703125 C-9.71515625 11.06015625 -10.45765625 11.16328125 -11.22265625 11.26953125 C-11.55265625 12.58953125 -11.88265625 13.90953125 -12.22265625 15.26953125 C-11.42601562 15.5840625 -10.629375 15.89859375 -9.80859375 16.22265625 C4.84125645 22.13962738 4.84125645 22.13962738 9.77734375 29.26953125 C11.23055194 33.62915581 11.59431751 37.82845302 10.12890625 42.20703125 C7.82235558 46.78070437 4.63969328 49.55286205 -0.22265625 51.26953125 C-7.01724277 52.90068199 -12.97375839 52.49277699 -19.22265625 49.26953125 C-22.36974437 46.6581177 -24.87920023 44.17776695 -26.22265625 40.26953125 C-26.34765625 37.51953125 -26.34765625 37.51953125 -26.22265625 35.26953125 C-20.03067569 32.29261752 -20.03067569 32.29261752 -17.03515625 32.20703125 C-15.22265625 33.26953125 -15.22265625 33.26953125 -13.28515625 36.26953125 C-11.53484399 39.43580609 -11.53484399 39.43580609 -8.66015625 40.20703125 C-6.08131241 40.41155057 -6.08131241 40.41155057 -3.22265625 39.26953125 C-2.89265625 37.28953125 -2.56265625 35.30953125 -2.22265625 33.26953125 C-3.70041824 32.51676732 -5.17996705 31.76751118 -6.66015625 31.01953125 C-7.56894531 30.55804687 -8.47773437 30.0965625 -9.4140625 29.62109375 C-11.94402523 28.40361516 -14.47807875 27.39703179 -17.09765625 26.39453125 C-20.90642722 24.70923436 -22.87123079 22.98636622 -24.6328125 19.1953125 C-26.10417267 14.3914677 -25.87641711 10.62935385 -23.66015625 6.01953125 C-17.33762633 -1.11357943 -9.17469566 -3.0152339 0 0 Z " fill="#1C781C" transform="translate(874.22265625,499.73046875)"/>
<path d="M0 0 C3.63 0 7.26 0 11 0 C11.33 3.63 11.66 7.26 12 11 C12.43828125 10.2059375 12.8765625 9.411875 13.328125 8.59375 C15.35409143 5.33243818 17.2110856 2.64946868 20 0 C24.15680053 -0.94795329 27.81456294 -0.69059712 32 0 C31.50372318 4.79132712 29.19771508 8.02090287 26.4375 11.8125 C26.01275391 12.40998047 25.58800781 13.00746094 25.15039062 13.62304688 C24.10776741 15.08740533 23.05489548 16.54445735 22 18 C23.0725 18.515625 24.145 19.03125 25.25 19.5625 C29.33572309 21.52678995 31.51769304 24.81644497 33 29 C33.45934181 32.83081115 33.3802854 36.58656412 33.25 40.4375 C33.23195313 41.45521484 33.21390625 42.47292969 33.1953125 43.52148438 C33.14849092 46.01473332 33.07675813 48.50749308 33 51 C29.7 51 26.4 51 23 51 C22.95101563 49.97519531 22.90203125 48.95039062 22.8515625 47.89453125 C22.77648929 46.5338294 22.70094345 45.17315356 22.625 43.8125 C22.5940625 43.13896484 22.563125 42.46542969 22.53125 41.77148438 C22.30096444 37.83743945 21.94391151 34.46751783 20 31 C16.94727535 30.10169161 16.94727535 30.10169161 14 30 C11.44666738 33.82999893 11.58807716 37.17379237 11.4375 41.625 C11.12053951 49.87946049 11.12053951 49.87946049 10 51 C8.50261876 51.0979057 7.00057108 51.12974864 5.5 51.125 C4.6853125 51.12757813 3.870625 51.13015625 3.03125 51.1328125 C1 51 1 51 0 50 C-0.09326716 48.43452952 -0.11745582 46.86487228 -0.11352539 45.29663086 C-0.11344986 44.29566879 -0.11337433 43.29470673 -0.11329651 42.26341248 C-0.10813522 41.1748848 -0.10297394 40.08635712 -0.09765625 38.96484375 C-0.0962413 37.85645645 -0.09482635 36.74806915 -0.09336853 35.60609436 C-0.08775033 32.04986931 -0.07519475 28.49370617 -0.0625 24.9375 C-0.05748734 22.53320403 -0.05292403 20.12890708 -0.04882812 17.72460938 C-0.03777499 11.81638223 -0.02049816 5.90820163 0 0 Z " fill="#1C7A1C" transform="translate(1090,500)"/>
<path d="M0 0 C4.29 0 8.58 0 13 0 C15.98152999 8.08869334 17.79650394 16.38232235 19.64428711 24.78515625 C20.18960391 27.25954657 20.74570397 29.73134845 21.30273438 32.203125 C21.6542931 33.78631474 22.00522677 35.36964344 22.35546875 36.953125 C22.52104782 37.68654114 22.68662689 38.41995728 22.85722351 39.17559814 C23.65262337 42.82967333 24.30051118 46.25537321 24 50 C23 51 23 51 19.94897461 51.11352539 C18.60008729 51.11336634 17.25119386 51.10767612 15.90234375 51.09765625 C14.83905602 51.09553383 14.83905602 51.09553383 13.75428772 51.09336853 C11.48198288 51.08775443 9.20977525 51.07519963 6.9375 51.0625 C5.40039204 51.05748681 3.86328255 51.05292359 2.32617188 51.04882812 C-1.44925642 51.03778042 -5.22461171 51.02050641 -9 51 C-10.94653647 47.79604218 -11.15426729 46.07992958 -10.32495117 42.44677734 C-10.12782028 41.55260101 -9.93068939 40.65842468 -9.72758484 39.7371521 C-9.50166153 38.77975128 -9.27573822 37.82235046 -9.04296875 36.8359375 C-8.82055008 35.84751862 -8.59813141 34.85909973 -8.36897278 33.84072876 C-7.65463497 30.68241166 -6.9209968 27.52891621 -6.1875 24.375 C-5.70387611 22.24245974 -5.22143975 20.1096498 -4.74023438 17.9765625 C-3.85474733 14.08092756 -2.96859442 10.18550191 -2.06323242 6.29443359 C-1.8817717 5.51151947 -1.70031097 4.72860535 -1.51335144 3.92196655 C-1 2 -1 2 0 0 Z M6 21 C4.68 27.27 3.36 33.54 2 40 C4.97 40 7.94 40 11 40 C10.00318287 33.54189755 8.98363508 27.23428168 7 21 C6.67 21 6.34 21 6 21 Z " fill="#1C7A1C" transform="translate(607,500)"/>
<path d="M0 0 C3.63 0 7.26 0 11 0 C11.01981934 1.11036621 11.03963867 2.22073242 11.06005859 3.36474609 C11.13601081 7.47614602 11.2247436 11.58718718 11.31738281 15.69824219 C11.35571565 17.47909473 11.39056089 19.26002584 11.421875 21.04101562 C11.46743271 23.59794234 11.52544107 26.1543261 11.5859375 28.7109375 C11.59748871 29.50994476 11.60903992 30.30895203 11.62094116 31.13217163 C11.57258944 35.53457212 11.57258944 35.53457212 14 39 C16.5 39.33333333 16.5 39.33333333 19 39 C21.93841527 36.06158473 21.33605733 32.90640562 21.37890625 28.96484375 C21.39590073 28.1709877 21.4128952 27.37713165 21.43040466 26.55921936 C21.48362528 24.01872741 21.52387653 21.4782526 21.5625 18.9375 C21.60637034 16.39326027 21.65302183 13.84915001 21.70530701 11.30506897 C21.73735966 9.7203998 21.76421964 8.13561592 21.78553772 6.55076599 C21.88826809 1.11173191 21.88826809 1.11173191 23 0 C24.68608966 -0.07205511 26.37500659 -0.08386068 28.0625 -0.0625 C28.98160156 -0.05347656 29.90070313 -0.04445313 30.84765625 -0.03515625 C31.55792969 -0.02355469 32.26820312 -0.01195312 33 0 C33.09914961 5.58669908 33.17160105 11.17288186 33.21972656 16.76025391 C33.23979629 18.65943325 33.26705851 20.55855115 33.30175781 22.45751953 C33.35048109 25.19318839 33.37301507 27.92803771 33.390625 30.6640625 C33.41127014 31.50804596 33.43191528 32.35202942 33.45318604 33.22158813 C33.455236 38.65227752 32.59908109 41.68422946 29 46 C24.19683002 50.33456803 20.58774667 51.31321307 14.27734375 51.2109375 C9.40458531 50.75960138 6.31414976 48.5809493 3.1875 45 C-0.36311374 40.13058688 -0.1334039 35.97704986 -0.09765625 30.17578125 C-0.09553383 28.88367989 -0.09553383 28.88367989 -0.09336853 27.56547546 C-0.0877714 24.81444831 -0.07521946 22.06350256 -0.0625 19.3125 C-0.05748463 17.4472668 -0.05292179 15.58203233 -0.04882812 13.71679688 C-0.03780292 9.14449989 -0.02054027 4.57226375 0 0 Z " fill="#1C781C" transform="translate(1154,500)"/>
<path d="M0 0 C13.57760121 5.0880274 27.62850757 12.13084595 35.3125 24.9375 C35.3125 25.5975 35.3125 26.2575 35.3125 26.9375 C34.71606689 26.81705322 34.11963379 26.69660645 33.50512695 26.57250977 C30.7750335 26.02352502 28.04387203 25.48008648 25.3125 24.9375 C24.45188965 24.76460449 23.5912793 24.59170898 22.70458984 24.41357422 C9.02009358 21.72192147 -4.28274022 20.43300485 -18.24145508 20.35327148 C-20.00138794 20.33115601 -20.00138794 20.33115601 -21.796875 20.30859375 C-23.35873535 20.3075061 -23.35873535 20.3075061 -24.95214844 20.30639648 C-28.10840452 19.88073574 -29.45529871 19.18674836 -31.6875 16.9375 C-33.23598221 11.22747183 -32.73596014 7.9250634 -30.0859375 2.69921875 C-23.31176495 -5.83472488 -9.13435621 -2.87404977 0 0 Z " fill="#EBBD00" transform="translate(61.6875,362.0625)"/>
<path d="M0 0 C3.3 0 6.6 0 10 0 C10.02505615 1.03930664 10.0501123 2.07861328 10.07592773 3.14941406 C10.17020926 7.01102703 10.27037908 10.87246883 10.37231445 14.73388672 C10.41558489 16.40409334 10.45726549 18.07434194 10.49731445 19.74462891 C10.55520851 22.14758955 10.6188474 24.55034041 10.68359375 26.953125 C10.70030624 27.69806213 10.71701874 28.44299927 10.73423767 29.21051025 C10.83061695 32.59509934 10.96070174 35.7600524 12 39 C16.00704733 39.3538071 16.00704733 39.3538071 19.66723633 37.9987793 C21.76558833 34.85182787 21.48140141 31.49469621 21.51171875 27.83203125 C21.52966995 27.03721848 21.54762115 26.2424057 21.56611633 25.42350769 C21.6202697 22.88655899 21.65413028 20.34979893 21.6875 17.8125 C21.72066874 16.09177059 21.75515799 14.3710661 21.79101562 12.65039062 C21.87599873 8.43372978 21.94278542 4.21712536 22 0 C25.63 0 29.26 0 33 0 C33.09943082 5.26524445 33.17173199 10.52993343 33.21972656 15.79589844 C33.23974959 17.58440684 33.26697654 19.37285054 33.30175781 21.16113281 C33.35068955 23.74300162 33.37306165 26.3239995 33.390625 28.90625 C33.41127014 29.69616333 33.43191528 30.48607666 33.45318604 31.29992676 C33.45544579 36.98576626 32.15400855 41.23981726 29 46 C24.75697599 50.13694841 22.00032342 50.83330638 16.25 51.3125 C11.60850175 51.2345644 7.65996101 49.87568365 4 47 C-0.35124864 41.81181652 -0.54460387 37.90318624 -0.390625 31.4453125 C-0.38496521 30.54376434 -0.37930542 29.64221619 -0.37347412 28.71334839 C-0.35118555 25.85001237 -0.30100389 22.98795411 -0.25 20.125 C-0.22992525 18.17710148 -0.21167619 16.22918323 -0.1953125 14.28125 C-0.15134547 9.5203453 -0.08237063 4.76038886 0 0 Z " fill="#1D7C1D" transform="translate(930,500)"/>
<path d="M0 0 C4.47915328 -0.02886338 8.95828291 -0.04675187 13.4375 -0.0625 C14.71689453 -0.07087891 15.99628906 -0.07925781 17.31445312 -0.08789062 C19.13686523 -0.09272461 19.13686523 -0.09272461 20.99609375 -0.09765625 C22.12200928 -0.10289307 23.2479248 -0.10812988 24.40795898 -0.11352539 C27 0 27 0 28 1 C28.1328125 2.8125 28.1328125 2.8125 28.125 5 C28.12886719 6.0828125 28.12886719 6.0828125 28.1328125 7.1875 C28 9 28 9 27 10 C24.47403741 10.23653523 21.96892793 10.42173692 19.4375 10.5625 C18.72658203 10.60568359 18.01566406 10.64886719 17.28320312 10.69335938 C15.52238088 10.79971777 13.7612168 10.90038846 12 11 C11.67 13.64 11.34 16.28 11 19 C12.05960938 18.75636719 12.05960938 18.75636719 13.140625 18.5078125 C16.07105895 17.98738024 18.77647133 17.86696344 21.75 17.875 C23.19632813 17.87113281 23.19632813 17.87113281 24.671875 17.8671875 C27 18 27 18 28 19 C28.0979057 20.49738124 28.12974864 21.99942892 28.125 23.5 C28.12886719 24.72203125 28.12886719 24.72203125 28.1328125 25.96875 C28 28 28 28 27 29 C24.25706804 29.28562763 21.51391162 29.44839273 18.76171875 29.62109375 C15.99689814 30.00042557 14.2600705 30.36627699 12 32 C11.30367785 33.95365445 11.30367785 33.95365445 11.25 36.125 C11.1675 37.40375 11.085 38.6825 11 40 C12.14339844 39.98839844 13.28679687 39.97679687 14.46484375 39.96484375 C15.95572754 39.95546712 17.44661309 39.94636679 18.9375 39.9375 C19.69224609 39.92912109 20.44699219 39.92074219 21.22460938 39.91210938 C23.14994313 39.90347559 25.07535581 39.94775667 27 40 C28.89885096 41.89885096 28.12367506 44.57247903 28.1328125 47.08984375 C28 49 28 49 27 51 C22.68751391 51.02886537 18.37505238 51.04675255 14.0625 51.0625 C12.83080078 51.07087891 11.59910156 51.07925781 10.33007812 51.08789062 C9.16025391 51.09111328 7.99042969 51.09433594 6.78515625 51.09765625 C5.15912476 51.10551147 5.15912476 51.10551147 3.50024414 51.11352539 C1 51 1 51 0 50 C-0.09326716 48.43452952 -0.11745582 46.86487228 -0.11352539 45.29663086 C-0.11344986 44.29566879 -0.11337433 43.29470673 -0.11329651 42.26341248 C-0.10813522 41.1748848 -0.10297394 40.08635712 -0.09765625 38.96484375 C-0.0962413 37.85645645 -0.09482635 36.74806915 -0.09336853 35.60609436 C-0.08775033 32.04986931 -0.07519475 28.49370617 -0.0625 24.9375 C-0.05748734 22.53320403 -0.05292403 20.12890708 -0.04882812 17.72460938 C-0.03777499 11.81638496 -0.02101917 5.9081969 0 0 Z " fill="#1C781C" transform="translate(1040,500)"/>
<path d="M0 0 C3.72901814 -0.08736736 7.45777165 -0.14051482 11.1875 -0.1875 C12.24259766 -0.21263672 13.29769531 -0.23777344 14.38476562 -0.26367188 C15.91713867 -0.27817383 15.91713867 -0.27817383 17.48046875 -0.29296875 C18.41785889 -0.3086792 19.35524902 -0.32438965 20.32104492 -0.34057617 C25.33182364 0.29644527 28.75160678 3.2875506 32 7 C33.773051 12.319153 33.87758841 18.42574067 32.0625 23.75 C28.76694935 27.34514617 24.93276663 30.13684154 21 33 C20.31550781 33.51433594 19.63101563 34.02867187 18.92578125 34.55859375 C14.27549575 38 14.27549575 38 12 38 C11.93941406 38.85464844 11.87882813 39.70929687 11.81640625 40.58984375 C11.73261719 41.69457031 11.64882813 42.79929687 11.5625 43.9375 C11.48128906 45.03964844 11.40007813 46.14179687 11.31640625 47.27734375 C11 50 11 50 10 51 C8.50261876 51.0979057 7.00057108 51.12974864 5.5 51.125 C4.6853125 51.12757813 3.870625 51.13015625 3.03125 51.1328125 C1 51 1 51 0 50 C-0.09326716 48.43452952 -0.11745582 46.86487228 -0.11352539 45.29663086 C-0.11344986 44.29566879 -0.11337433 43.29470673 -0.11329651 42.26341248 C-0.10813522 41.1748848 -0.10297394 40.08635712 -0.09765625 38.96484375 C-0.0962413 37.85645645 -0.09482635 36.74806915 -0.09336853 35.60609436 C-0.08775033 32.04986931 -0.07519475 28.49370617 -0.0625 24.9375 C-0.05748734 22.53320403 -0.05292403 20.12890708 -0.04882812 17.72460938 C-0.03777499 11.81638496 -0.02101917 5.9081969 0 0 Z M11 11 C10.92728259 13.35313555 10.91629132 15.70833668 10.9375 18.0625 C10.94652344 19.35285156 10.95554687 20.64320313 10.96484375 21.97265625 C10.97644531 22.97167969 10.98804688 23.97070312 11 25 C15.65346455 23.25594173 18.5227832 21.5580823 22 18 C22.75137168 14.8707236 22.75137168 14.8707236 22 12 C19.10323828 10.06882552 13.95997134 8.04002866 11 11 Z " fill="#1C7A1C" transform="translate(724,500)"/>
<path d="M0 0 C3.70806596 -0.11674705 7.4156554 -0.18743274 11.125 -0.25 C12.17171875 -0.28351563 13.2184375 -0.31703125 14.296875 -0.3515625 C20.56138777 -0.43086013 24.25587472 -0.22812465 29 4 C33.1771257 8.50689878 33.46363524 12.33626578 33.53125 18.21875 C32.49702986 23.63319664 29.5159741 26.82164982 25.14453125 29.921875 C23.70805351 30.87602215 22.26381584 31.81857775 20.8125 32.75 C19.35812427 33.6992251 17.90616829 34.65217132 16.45703125 35.609375 C15.81741455 36.02155273 15.17779785 36.43373047 14.51879883 36.85839844 C12.84371109 37.94068538 12.84371109 37.94068538 12 40 C11.68954474 42.59143905 11.49026088 45.18371732 11.28125 47.78515625 C11 50 11 50 10 51 C8.50261876 51.0979057 7.00057108 51.12974864 5.5 51.125 C4.6853125 51.12757813 3.870625 51.13015625 3.03125 51.1328125 C1 51 1 51 0 50 C-0.09326716 48.43452952 -0.11745582 46.86487228 -0.11352539 45.29663086 C-0.11344986 44.29566879 -0.11337433 43.29470673 -0.11329651 42.26341248 C-0.10813522 41.1748848 -0.10297394 40.08635712 -0.09765625 38.96484375 C-0.0962413 37.85645645 -0.09482635 36.74806915 -0.09336853 35.60609436 C-0.08775033 32.04986931 -0.07519475 28.49370617 -0.0625 24.9375 C-0.05748734 22.53320403 -0.05292403 20.12890708 -0.04882812 17.72460938 C-0.03777499 11.81638496 -0.02101917 5.9081969 0 0 Z M11 10 C11 14.95 11 19.9 11 25 C17.00189726 22.09220347 17.00189726 22.09220347 22 18 C22.75021244 15.45632332 22.75021244 15.45632332 22 13 C20.50098982 11.01990794 20.50098982 11.01990794 18 10 C15.69 10 13.38 10 11 10 Z " fill="#1C7A1C" transform="translate(564,500)"/>
<path d="M0 0 C8.91 0 17.82 0 27 0 C27 3.3 27 6.6 27 10 C21.72 10 16.44 10 11 10 C11 12.97 11 15.94 11 19 C11.70511719 18.83628906 12.41023437 18.67257812 13.13671875 18.50390625 C16.09658688 17.98300176 18.81061273 17.90133268 21.8125 17.9375 C23.27623047 17.95103516 23.27623047 17.95103516 24.76953125 17.96484375 C25.87361328 17.98224609 25.87361328 17.98224609 27 18 C27.02688151 19.64574566 27.04634123 21.29161413 27.0625 22.9375 C27.07410156 23.85402344 27.08570313 24.77054688 27.09765625 25.71484375 C27 28 27 28 26 29 C23.47804033 29.39943176 20.97036344 29.75079848 18.4375 30.0625 C17.72658203 30.15337891 17.01566406 30.24425781 16.28320312 30.33789062 C14.52261597 30.56239503 12.76136522 30.78168397 11 31 C11 33.97 11 36.94 11 40 C16.28 40 21.56 40 27 40 C27 43.63 27 47.26 27 51 C18.09 51 9.18 51 0 51 C0 34.17 0 17.34 0 0 Z " fill="#1C7A1C" transform="translate(761,500)"/>
<path d="M0 0 C8.91 0 17.82 0 27 0 C27 3.3 27 6.6 27 10 C21.72 10 16.44 10 11 10 C11 12.97 11 15.94 11 19 C11.70511719 18.83628906 12.41023437 18.67257812 13.13671875 18.50390625 C16.09658688 17.98300176 18.81061273 17.90133268 21.8125 17.9375 C23.27623047 17.95103516 23.27623047 17.95103516 24.76953125 17.96484375 C25.87361328 17.98224609 25.87361328 17.98224609 27 18 C27.02688151 19.64574566 27.04634123 21.29161413 27.0625 22.9375 C27.07410156 23.85402344 27.08570313 24.77054688 27.09765625 25.71484375 C27 28 27 28 26 29 C23.47804033 29.39943176 20.97036344 29.75079848 18.4375 30.0625 C17.72658203 30.15337891 17.01566406 30.24425781 16.28320312 30.33789062 C14.52261597 30.56239503 12.76136522 30.78168397 11 31 C11 33.97 11 36.94 11 40 C16.28 40 21.56 40 27 40 C27 43.63 27 47.26 27 51 C18.09 51 9.18 51 0 51 C0 34.17 0 17.34 0 0 Z " fill="#1C7B1C" transform="translate(533,500)"/>
<path d="M0 0 C4.17341061 2.96954217 7.51080109 6.41112124 9.25 11.3125 C9.25 13.375 9.25 13.375 8.25 15.3125 C4.57115375 17.60155989 2.63448044 18.3125 -1.75 18.3125 C-3.07 15.6725 -4.39 13.0325 -5.75 10.3125 C-8.16585574 10.34343173 -8.16585574 10.34343173 -10.75 11.3125 C-14.73765818 17.67376424 -14.55150612 24.02999817 -13.75 31.3125 C-12.51006173 34.60153814 -10.96858021 36.70320989 -7.75 38.3125 C-4.37671248 38.62833446 -1.00265635 38.82383762 2.37890625 39.03125 C5.25 39.3125 5.25 39.3125 6.25 40.3125 C6.3479057 41.80988124 6.37974864 43.31192892 6.375 44.8125 C6.37886719 46.03453125 6.37886719 46.03453125 6.3828125 47.28125 C6.25 49.3125 6.25 49.3125 5.25 50.3125 C2.50711937 50.46702849 -0.1932164 50.5442504 -2.9375 50.5625 C-3.69353516 50.583125 -4.44957031 50.60375 -5.22851562 50.625 C-10.97927424 50.66490119 -15.05586652 49.63098088 -19.54296875 45.76953125 C-27.03416236 36.93537856 -27.61825704 28.66098643 -26.75 17.3125 C-25.59688049 10.16523671 -22.05942856 5.14892824 -16.75 0.3125 C-11.57527899 -2.8719437 -5.30445948 -2.81159118 0 0 Z " fill="#1C781C" transform="translate(1028.75,500.6875)"/>
<path d="M0 0 C0.93050292 3.63742049 1.30458505 5.37698512 -0.375 8.8125 C-2 11 -2 11 -3 12 C-5.51606449 12.24349011 -8.03086024 12.38363366 -10.5546875 12.5234375 C-13.5298007 13.10325189 -14.17128933 13.60683835 -16 16 C-17.01225045 19.21173665 -17.01225045 19.21173665 -17.71875 22.93359375 C-17.86276245 23.60793961 -18.0067749 24.28228546 -18.15515137 24.97706604 C-18.6141232 27.12845762 -19.05863813 29.28243154 -19.5 31.4375 C-20.08197415 34.27216472 -20.67770516 37.1034538 -21.28125 39.93359375 C-21.53970703 41.19228271 -21.79816406 42.45097168 -22.06445312 43.74780273 C-22.96789295 46.88838777 -23.68517881 48.71654591 -26 51 C-30.55448494 51.50605388 -33.88733277 50.99402048 -38 49 C-37.32963474 43.87559743 -36.39075623 38.87689344 -35.2578125 33.8359375 C-35.08877411 33.08083893 -34.91973572 32.32574036 -34.74557495 31.54776001 C-34.38910468 29.96247066 -34.03101809 28.37754398 -33.67138672 26.79296875 C-33.12540504 24.37679245 -32.59194921 21.95805277 -32.05859375 19.5390625 C-31.70910376 17.99201325 -31.35886868 16.4451321 -31.0078125 14.8984375 C-30.85144318 14.18062103 -30.69507385 13.46280457 -30.53396606 12.72323608 C-29.59615877 8.66735964 -28.44323985 5.38752546 -26 2 C-18.56307407 -2.50722784 -8.19916016 -1.0132042 0 0 Z " fill="#E8BB00" transform="translate(941,426)"/>
<path d="M0 0 C0.81855469 0.00064453 1.63710938 0.00128906 2.48046875 0.00195312 C8.48425752 0.04675752 8.48425752 0.04675752 9.625 1.1875 C9.609375 3.1484375 9.609375 3.1484375 9.375 5.5625 C9.30796875 6.35398437 9.2409375 7.14546875 9.171875 7.9609375 C8.51714964 10.62660504 7.87210573 11.62010571 5.625 13.1875 C3.31535485 13.35338612 1.18095571 13.12436882 -1.12109375 12.90234375 C-4.40341378 13.31761128 -5.31116188 14.634488 -7.375 17.1875 C-8.14338351 19.67439719 -8.7014666 21.93218223 -9.15625 24.47265625 C-9.29647583 25.17015488 -9.43670166 25.8676535 -9.58117676 26.58628845 C-10.17801494 29.55620662 -10.73930702 32.53253306 -11.30224609 35.5090332 C-11.71956582 37.68723278 -12.15605024 39.86097607 -12.59375 42.03515625 C-12.7136731 42.70708511 -12.83359619 43.37901398 -12.95715332 44.07130432 C-13.57090953 47.10558472 -14.10881942 48.9186348 -16.31152344 51.14355469 C-19.21829436 52.61413591 -20.98891684 52.08435214 -24.125 51.375 C-25.10984375 51.16230469 -26.0946875 50.94960938 -27.109375 50.73046875 C-27.85703125 50.55128906 -28.6046875 50.37210937 -29.375 50.1875 C-29.25197006 49.63814789 -29.12894012 49.08879578 -29.00218201 48.52279663 C-27.97903546 43.93880018 -26.97803019 39.35102801 -26.00563049 34.75601196 C-25.33580358 31.59968099 -24.65344539 28.44609251 -23.97094727 25.29248047 C-23.61318546 23.62925648 -23.25938882 21.96517497 -22.90942383 20.30029297 C-22.39927596 17.877506 -21.87491109 15.4581762 -21.34765625 13.0390625 C-21.19442398 12.29532379 -21.04119171 11.55158508 -20.88331604 10.78530884 C-19.444619 4.30373819 -19.444619 4.30373819 -16.375 2.1875 C-10.85463836 0.09476845 -5.80811265 -0.08942799 0 0 Z " fill="#E6BA00" transform="translate(790.375,424.8125)"/>
<path d="M0 0 C1.30167114 0.00918457 1.30167114 0.00918457 2.62963867 0.01855469 C12.99334278 0.26738312 22.59948886 2.62882591 31.3125 8.4375 C31.3125 9.0975 31.3125 9.7575 31.3125 10.4375 C30.63372803 10.56278076 29.95495605 10.68806152 29.25561523 10.81713867 C8.63347569 14.22824259 8.63347569 14.22824259 -10.8203125 21.55859375 C-14.22043781 23.15907114 -16.96533538 22.79199187 -20.6875 22.4375 C-23.15029252 20.66736788 -23.54020922 19.3195709 -24.03125 16.37890625 C-24.31979697 12.10119746 -23.92095744 9.8441678 -21.75 6.0625 C-16.14083218 0.35628436 -7.55524572 -0.09167731 0 0 Z " fill="#EBBE00" transform="translate(47.6875,442.5625)"/>
<path d="M0 0 C3.63 0 7.26 0 11 0 C11 13.2 11 26.4 11 40 C15.62 40 20.24 40 25 40 C26 41 26 41 26.1328125 43.03125 C26.13023438 43.8459375 26.12765625 44.660625 26.125 45.5 C26.12886719 46.72203125 26.12886719 46.72203125 26.1328125 47.96875 C26 50 26 50 25 51 C23.23140807 51.09946453 21.45888549 51.13080217 19.6875 51.1328125 C18.61242188 51.13410156 17.53734375 51.13539063 16.4296875 51.13671875 C15.29789063 51.13285156 14.16609375 51.12898437 13 51.125 C11.86820313 51.12886719 10.73640625 51.13273438 9.5703125 51.13671875 C8.49523438 51.13542969 7.42015625 51.13414062 6.3125 51.1328125 C5.31863281 51.13168457 4.32476563 51.13055664 3.30078125 51.12939453 C1 51 1 51 0 50 C-0.09326716 48.43452952 -0.11745582 46.86487228 -0.11352539 45.29663086 C-0.11344986 44.29566879 -0.11337433 43.29470673 -0.11329651 42.26341248 C-0.10813522 41.1748848 -0.10297394 40.08635712 -0.09765625 38.96484375 C-0.0962413 37.85645645 -0.09482635 36.74806915 -0.09336853 35.60609436 C-0.08775033 32.04986931 -0.07519475 28.49370617 -0.0625 24.9375 C-0.05748734 22.53320403 -0.05292403 20.12890708 -0.04882812 17.72460938 C-0.03777499 11.81638223 -0.02049816 5.90820163 0 0 Z " fill="#1B761B" transform="translate(1127,500)"/>
<path d="M0 0 C3.63 0 7.26 0 11 0 C11 13.2 11 26.4 11 40 C15.62 40 20.24 40 25 40 C25 43.63 25 47.26 25 51 C21.02078906 51.02682614 17.04175659 51.04675393 13.0625 51.0625 C11.35803711 51.07506836 11.35803711 51.07506836 9.61914062 51.08789062 C8.53955078 51.09111328 7.45996094 51.09433594 6.34765625 51.09765625 C4.84730835 51.10551147 4.84730835 51.10551147 3.31665039 51.11352539 C1 51 1 51 0 50 C-0.09326716 48.43452952 -0.11745582 46.86487228 -0.11352539 45.29663086 C-0.11344986 44.29566879 -0.11337433 43.29470673 -0.11329651 42.26341248 C-0.10813522 41.1748848 -0.10297394 40.08635712 -0.09765625 38.96484375 C-0.0962413 37.85645645 -0.09482635 36.74806915 -0.09336853 35.60609436 C-0.08775033 32.04986931 -0.07519475 28.49370617 -0.0625 24.9375 C-0.05748734 22.53320403 -0.05292403 20.12890708 -0.04882812 17.72460938 C-0.03777499 11.81638223 -0.02049816 5.90820163 0 0 Z " fill="#1C781C" transform="translate(634,500)"/>
<path d="M0 0 C-1.84390885 6.04326256 -6.16248442 10.55700201 -10.03710938 15.41015625 C-13.50516313 19.8298344 -16.42479498 24.26706489 -19.04370117 29.24121094 C-20 31 -20 31 -21 32 C-24.3125 32.375 -24.3125 32.375 -28 32 C-30.5 30 -30.5 30 -32 27 C-32.39420854 22.34833928 -31.9070154 20.27021421 -29.1953125 16.47265625 C-21.7445736 7.90043935 -12.29763906 -1.1900941 0 0 Z " fill="#DFB400" transform="translate(88,508)"/>
<path d="M0 0 C0.33 0 0.66 0 1 0 C1.350625 1.258125 1.70125 2.51625 2.0625 3.8125 C4.03305789 9.81983182 7.45929706 14.81020253 11 20 C11.66 18.68 12.32 17.36 13 16 C13.06058594 16.88300781 13.12117187 17.76601563 13.18359375 18.67578125 C13.26738281 19.87589844 13.35117188 21.07601563 13.4375 22.3125 C13.52128906 23.58480469 13.60507813 24.85710937 13.69140625 26.16796875 C13.8817133 28.53114866 14.12797252 30.89150605 14.46484375 33.23828125 C14.84130215 35.88783129 15.14559714 38.32758797 15 41 C12.9375 43.6875 12.9375 43.6875 10 45 C6.6875 45.25 6.6875 45.25 4 45 C0.19226002 35.30757095 -1.30840601 27.22950693 -1.1875 16.8125 C-1.18685547 15.74580078 -1.18621094 14.67910156 -1.18554688 13.58007812 C-1.15919743 8.8986594 -1.038706 4.58118562 0 0 Z " fill="#E7BB00" transform="translate(158,439)"/>
<path d="M0 0 C-0.11424682 6.39782186 -1.76889827 11.39939296 -4.3125 17.1875 C-4.60842041 17.86425781 -4.90434082 18.54101562 -5.20922852 19.23828125 C-10.23392703 30.31080079 -10.23392703 30.31080079 -14.5625 32 C-17 32 -17 32 -20 30 C-20.25137547 27.47128244 -20.3268897 25.20804034 -20.25 22.6875 C-20.23453125 21.37136719 -20.2190625 20.05523437 -20.203125 18.69921875 C-19.88623048 12.92808203 -19.88623048 12.92808203 -19 10 C-17.25 8.5144043 -17.25 8.5144043 -15 7.32421875 C-13.7934375 6.67163086 -13.7934375 6.67163086 -12.5625 6.00585938 C-11.716875 5.57080078 -10.87125 5.13574219 -10 4.6875 C-9.154375 4.23310547 -8.30875 3.77871094 -7.4375 3.31054688 C-1.22462406 0 -1.22462406 0 0 0 Z " fill="#E8C226" transform="translate(236,276)"/>
<path d="M0 0 C5.57926801 2.20134384 9.25813072 5.63050599 12 11 C12 12.32 12 13.64 12 15 C10.80455566 15.03758423 10.80455566 15.03758423 9.58496094 15.07592773 C5.97314778 15.19198789 2.36158898 15.31466931 -1.25 15.4375 C-3.13138672 15.49647461 -3.13138672 15.49647461 -5.05078125 15.55664062 C-6.25605469 15.59853516 -7.46132813 15.64042969 -8.703125 15.68359375 C-9.81333008 15.72025146 -10.92353516 15.75690918 -12.06738281 15.79467773 C-14.53021849 15.96710904 -16.64482965 16.29595439 -19 17 C-17.79129431 10.84658921 -15.87999931 5.98679398 -12 1 C-8.2483423 -0.87582885 -4.08512416 -0.52557153 0 0 Z " fill="#ECBE00" transform="translate(351,235)"/>
<path d="M0 0 C1.58323688 -0.027193 3.16661062 -0.04648306 4.75 -0.0625 C6.07257812 -0.07990234 6.07257812 -0.07990234 7.421875 -0.09765625 C9.7818838 -0.00826198 11.74498524 0.33087179 14 1 C14.36573311 8.43657331 14.36573311 8.43657331 12.84375 10.78125 C10.19337256 12.53319441 8.41772836 12.08935308 5.3125 11.6875 C3.82169922 11.50767578 3.82169922 11.50767578 2.30078125 11.32421875 C1.54152344 11.21722656 0.78226563 11.11023438 0 11 C-0.69584017 6.97959015 -1.1700097 3.91736581 0 0 Z " fill="#BC4037" transform="translate(611,426)"/>
<path d="M0 0 C0.66 0.33 1.32 0.66 2 1 C-3.61 6.61 -9.22 12.22 -15 18 C-15.66 17.67 -16.32 17.34 -17 17 C-15.29657414 15.09955869 -13.58752883 13.20471126 -11.875 11.3125 C-11.400625 10.78205078 -10.92625 10.25160156 -10.4375 9.70507812 C-7.18500869 6.12294242 -3.77952775 3.02250068 0 0 Z " fill="#A4891B" transform="translate(188,394)"/>
<path d="M0 0 C0.66 0.33 1.32 0.66 2 1 C-1.63 4.63 -5.26 8.26 -9 12 C-9 8.47601214 -8.44884893 7.98495633 -6.1875 5.4375 C-5.40439453 4.53837891 -5.40439453 4.53837891 -4.60546875 3.62109375 C-3 2 -3 2 0 0 Z " fill="#9E7F00" transform="translate(810,427)"/>
<path d="M0 0 C-1.67741935 3.74193548 -1.67741935 3.74193548 -3.5625 5.25 C-5.93029216 8.13252959 -5.70012705 11.34155006 -6 15 C-6.33 15 -6.66 15 -7 15 C-7.48279288 10.17207121 -7.82060585 6.34532299 -4.625 2.4375 C-2 0 -2 0 0 0 Z " fill="#937700" transform="translate(31,446)"/>
<path d="M0 0 C0.99 0.33 1.98 0.66 3 1 C0.03 3.97 -2.94 6.94 -6 10 C-6 6.41087588 -5.33563446 5.89142971 -3 3.3125 C-2.443125 2.68988281 -1.88625 2.06726563 -1.3125 1.42578125 C-0.879375 0.95527344 -0.44625 0.48476563 0 0 Z " fill="#997C00" transform="translate(1271,430)"/>
<path d="M0 0 C0.99 0.33 1.98 0.66 3 1 C0.03 3.97 -2.94 6.94 -6 10 C-6 6.41087588 -5.33563446 5.89142971 -3 3.3125 C-2.443125 2.68988281 -1.88625 2.06726563 -1.3125 1.42578125 C-0.879375 0.95527344 -0.44625 0.48476563 0 0 Z " fill="#9B7D00" transform="translate(1078,429)"/>
<path d="M0 0 C-1.38188453 3.21043882 -2.92421903 5.04936365 -5.625 7.25 C-6.57246094 8.03117187 -6.57246094 8.03117187 -7.5390625 8.828125 C-8.02117188 9.21484375 -8.50328125 9.6015625 -9 10 C-7.6834994 5.81113445 -4.97532335 0 0 0 Z " fill="#145614" transform="translate(1014,501)"/>
<path d="M0 0 C1.65322266 0.01740234 1.65322266 0.01740234 3.33984375 0.03515625 C4.99693359 0.04869141 4.99693359 0.04869141 6.6875 0.0625 C7.54214844 0.07410156 8.39679688 0.08570313 9.27734375 0.09765625 C8.94734375 1.08765625 8.61734375 2.07765625 8.27734375 3.09765625 C8.27734375 2.43765625 8.27734375 1.77765625 8.27734375 1.09765625 C2.41285921 1.35318935 -1.38023196 1.75523196 -5.72265625 6.09765625 C-3.42464819 0.1228353 -3.42464819 0.1228353 0 0 Z " fill="#155C15" transform="translate(1112.72265625,499.90234375)"/>
<path d="M0 0 C0.66 0.33 1.32 0.66 2 1 C-0.97 3.97 -3.94 6.94 -7 10 C-7 6.04435836 -5.59478606 4.89133304 -3 2 C-2.01 1.34 -1.02 0.68 0 0 Z " fill="#977A00" transform="translate(730,429)"/>
<path d="M0 0 C-1.5830577 4.2742558 -4.50568404 6.26531794 -8 9 C-6.68994234 5.06982701 -4.75047804 0 0 0 Z " fill="#A58500" transform="translate(515,412)"/>
<path d="M0 0 C0.66 0.33 1.32 0.66 2 1 C-0.64 3.64 -3.28 6.28 -6 9 C-6 6 -6 6 -3.5625 3.375 C-2.716875 2.59125 -1.87125 1.8075 -1 1 C-0.67 0.67 -0.34 0.34 0 0 Z " fill="#124F12" transform="translate(693,501)"/>
<path d="M0 0 C0.99 0.33 1.98 0.66 3 1 C0.69 3.31 -1.62 5.62 -4 8 C-4 4.09161134 -2.49432124 2.88405893 0 0 Z " fill="#9E8000" transform="translate(947,431)"/>
<path d="M0 0 C-1.0725 0.45375 -2.145 0.9075 -3.25 1.375 C-5.88062317 2.50088537 -8.46000396 3.67920206 -11 5 C-9.96508351 2.17750049 -9.30084735 1.16625774 -6.625 -0.3125 C-3.89420147 -1.02770914 -2.60810739 -0.9659657 0 0 Z " fill="#8E7300" transform="translate(924,427)"/>
</svg>
